<?xml version="1.0" encoding="UTF-8"?>
<svg width="900" height="600" version="1.1" xmlns="http://www.w3.org/2000/svg" xmlns:cc="http://creativecommons.org/ns#" xmlns:dc="http://purl.org/dc/elements/1.1/" xmlns:rdf="http://www.w3.org/1999/02/22-rdf-syntax-ns#" xmlns:xlink="http://www.w3.org/1999/xlink">
<path d="m0 0h900v600h-900z" style="fill:#003893"/>
<path d="m0 300h900v150h-900z" style="fill:#ffffff"/>
<path d="m0 350h900v50h-900z" style="fill:#cf2027"/>
<g transform="matrix(2,0,0,2,322.5,375)" style="fill:#f7d116">
<g id="d">
<g id="c" transform="translate(0,-75)">
<g id="b">
<path id="a" transform="rotate(18,0,-15)" d="m0-15v15h7.5"/>
<use transform="scale(-1,1)" width="100%" height="100%" xlink:href="#a"/>
</g>
<use transform="rotate(72)" width="100%" height="100%" xlink:href="#b"/>
<use transform="rotate(144)" width="100%" height="100%" xlink:href="#b"/>
<use transform="rotate(216)" width="100%" height="100%" xlink:href="#b"/>
<use transform="rotate(-72)" width="100%" height="100%" xlink:href="#b"/>
</g>
<use y="150" width="100%" height="100%" xlink:href="#c"/>
</g>
<use transform="rotate(72)" width="100%" height="100%" xlink:href="#d"/>
<use transform="rotate(144)" width="100%" height="100%" xlink:href="#d"/>
<use transform="rotate(216)" width="100%" height="100%" xlink:href="#d"/>
<use transform="rotate(-72)" width="100%" height="100%" xlink:href="#d"/>
</g>
</svg>