<?xml version="1.0" encoding="UTF-8" standalone="no"?>
<svg
   id="svg"
   version="1.1"
   width="1200"
   height="600"
   viewBox="0 0 1200 600"
   sodipodi:docname="Official_Flag_of_Eritrea.svg"
   inkscape:version="1.1 (c68e22c387, 2021-05-23)"
   xmlns:inkscape="http://www.inkscape.org/namespaces/inkscape"
   xmlns:sodipodi="http://sodipodi.sourceforge.net/DTD/sodipodi-0.dtd"
   xmlns="http://www.w3.org/2000/svg"
   xmlns:svg="http://www.w3.org/2000/svg">
  <defs
     id="defs844" />
  <sodipodi:namedview
     id="namedview842"
     pagecolor="#ffffff"
     bordercolor="#999999"
     borderopacity="1"
     inkscape:pageshadow="0"
     inkscape:pageopacity="0"
     inkscape:pagecheckerboard="0"
     showgrid="true"
     inkscape:zoom="0.51916667"
     inkscape:cx="600"
     inkscape:cy="299.51846"
     inkscape:window-width="1366"
     inkscape:window-height="705"
     inkscape:window-x="-8"
     inkscape:window-y="-8"
     inkscape:window-maximized="1"
     inkscape:current-layer="layer2" />
  <g
     inkscape:groupmode="layer"
     id="layer1"
     inkscape:label="Green">
    <path
       id="path0"
       d="M 1200,300 V 0 C 801.09981,0.080021 398.8998,-0.3449675 0,0 0,0 843.1155,210.96604 1200,300 Z"
       stroke="none"
       fill="#0bac24"
       fill-rule="evenodd"
       sodipodi:nodetypes="cccc"
       style="stroke-width:2.99965" />
  </g>
  <g
     inkscape:groupmode="layer"
     id="layer2"
     inkscape:label="Red">
    <path
       id="path1"
       d="M 0,600 1200,300 0,0 Z"
       stroke="none"
       fill="#eb0433"
       fill-rule="evenodd"
       sodipodi:nodetypes="cccc"
       style="stroke-width:2.99965" />
  </g>
  <g
     inkscape:groupmode="layer"
     id="layer3"
     inkscape:label="Blue">
    <g
       id="svgg"
       transform="matrix(3,0,0,2.9992952,0,2)">
      <path
         id="path3"
         d="m 0,199.38017 c 400,0 400,0 400,0 V 99.356676 Z"
         stroke="none"
         fill="#3c8bdc"
         fill-rule="evenodd"
         sodipodi:nodetypes="cccc" />
    </g>
  </g>
  <g
     inkscape:groupmode="layer"
     id="layer4"
     inkscape:label="Symbol  "
     style="display:inline">
    <path
       id="path2"
       d="m 262.42065,151.03479 c -9.618,2.33045 -19.344,10.65949 -25.086,21.47795 -2.292,4.31899 -5.979,5.26077 -5.979,1.52964 0,-4.36397 3.264,-8.71595 10.2,-13.6048 7.752,-5.45872 8.229,-6.44549 3.426,-7.04535 -8.574,-1.07374 -17.49,3.0053 -26.913,12.30311 -9.222,9.10286 -11.313,13.85675 -11.313,25.72196 0,6.67943 -0.054,6.96436 -1.611,8.58998 -5.541,5.78264 -6.075,-7.06334 -0.831,-19.91232 2.343,-5.73765 2.382,-5.59968 -1.209,-4.23501 -8.028,3.05029 -15.567,9.27682 -18.096,14.94249 -3.642,8.17008 -6.306,23.8444 -5.28,31.0937 0.471,3.32022 1.002,4.72389 3.906,10.26359 2.019,3.85409 -0.354,6.58645 -3.099,3.57216 -1.122,-1.22972 -2.118,-4.50195 -3.876,-12.74701 -0.618,-2.89732 -0.327,-12.36009 0.498,-16.1722 l 0.387,-1.77258 -2.49,1.97053 c -6.327,5.00883 -13.542,16.31017 -15.366,24.07235 -3.264,13.89273 2.469,34.82781 12.084,44.13163 4.434,4.28899 5.661,6.85639 3.273,6.85639 -4.071,0 -10.527,-8.512 -16.356,-21.56494 -3.429,-7.67519 -3.627,-7.76217 -5.232,-2.29746 -4.665,15.88427 -4.614,27.50054 0.18,39.29977 4.383,10.79446 18.324,27.59052 27.507,33.14221 3.18,1.92255 4.827,4.19302 3.795,5.22477 -0.576,0.57587 -7.398,-1.96454 -11.097,-4.13003 -4.863,-2.84933 -14.154,-12.41708 -18.087,-18.62862 -3.849,-6.07657 -4.2,-6.26253 -4.2,-2.24947 0,17.67485 6.768,33.97302 19.155,46.12316 15.345,15.05046 24.309,19.85534 42.339,22.69567 5.094,0.80081 4.386,2.31545 -1.314,2.80134 -10.248,0.87579 -28.455,-2.80734 -37.797,-7.6422 -2.55,-1.31969 -2.835,-0.56987 -1.248,3.28722 14.103,34.22496 55.299,50.46614 111.393,43.91568 4.359,-0.50988 4.278,-0.4049 -6.828,8.78794 -5.28,4.37297 -9.654,8.25406 -9.723,8.62297 -0.105,0.58486 7.518,7.61821 8.694,8.02012 0.234,0.081 5.019,-4.16602 10.629,-9.43878 11.913,-11.19637 11.196,-10.86345 10.674,-4.95484 -0.729,8.23307 -1.119,7.42326 4.5,9.3728 5.904,2.04852 5.46,2.32745 5.922,-3.68914 0.558,-7.2073 0.333,-7.2343 9.165,1.11874 9.213,8.71595 7.908,8.32904 13.203,3.91708 5.427,-4.51994 5.814,-3.62315 -5.622,-12.99295 -5.421,-4.44195 -9.876,-8.29005 -9.9,-8.55699 -0.024,-0.26393 2.997,-0.26393 6.708,0 56.592,4.04305 89.862,-8.46101 105.669,-39.70766 1.5,-2.96931 2.91,-6.15756 3.129,-7.08734 l 0.402,-1.6886 -2.325,1.00776 c -15.633,6.78141 -42.525,10.74348 -42.525,6.26853 0,-0.63285 0.984,-1.04376 3.3,-1.38568 15.936,-2.35144 24.636,-6.66443 38.016,-18.83557 15.873,-14.44161 21.816,-26.75071 22.959,-47.55383 l 0.345,-6.30751 -3.744,5.57869 c -7.095,10.56351 -15.429,18.17273 -23.838,21.75988 -8.541,3.64415 -8.736,0.47689 -0.291,-4.79887 6.486,-4.05205 20.097,-20.21525 24.699,-29.33311 5.739,-11.36433 6.051,-28.47531 0.801,-43.8047 -1.254,-3.66214 -1.536,-3.53017 -3.711,1.70959 -5.721,13.78776 -13.176,23.99437 -17.526,23.99437 -2.364,0 -1.14,-2.52241 3.309,-6.8234 5.229,-5.05681 8.004,-10.26359 10.731,-20.14627 5.19,-18.81457 1.551,-32.77329 -12.042,-46.18914 -4.08,-4.02506 -4.821,-4.06705 -3.75,-0.20995 2.481,8.9259 -1.677,28.37933 -6.063,28.37933 -1.734,0 -1.47,-4.256 0.441,-7.14732 4.191,-6.33151 4.206,-15.52435 0.051,-31.41162 -3.075,-11.76024 -9.624,-18.77859 -21.408,-22.93561 -2.946,-1.03776 -2.979,-1.6946 0.36,6.90738 4.41,11.35233 3.192,23.26253 -1.776,17.36292 -1.431,-1.7036 -1.518,-2.1415 -1.209,-6.14856 1.122,-14.4686 -8.43,-29.66603 -23.211,-36.93932 -6.534,-3.21524 -18.543,-4.95483 -18.543,-2.68437 0,1.12174 1.725,2.83134 5.52,5.46772 8.055,5.59968 11.28,9.65473 11.28,14.18366 0,3.46419 -3.783,3.37121 -5.376,-0.13197 -6.198,-13.6138 -20.235,-23.52647 -33.27,-23.49347 -6.615,0.018 -6.675,2.21647 -0.147,5.30275 3.939,1.85956 6.726,4.51694 7.353,7.00635 0.705,2.80734 -0.144,2.74436 -3.273,-0.23994 -6.903,-6.58045 -17.727,-9.8107 -24.387,-7.27929 l -1.578,0.59986 1.362,2.42343 c 2.805,4.98483 8.49,7.69619 19.416,9.24983 8.529,1.21471 10.554,2.22547 5.649,2.81333 -6.786,0.81581 -9.711,0.58787 -12.675,-0.98976 -6.252,-3.32622 -6.264,-0.98977 -0.024,5.1048 7.341,7.17131 13.632,9.54675 22.926,8.65296 10.44,-1.00476 19.842,-0.67184 22.632,0.79782 3.456,1.82057 3.732,2.5404 0.978,2.5404 -1.257,0 -4.581,0.40491 -7.386,0.89979 -2.805,0.49488 -6.636,0.89979 -8.514,0.89979 -4.53,0 -4.596,0.33892 -1.092,5.57569 5.361,8.01111 13.605,14.81951 17.946,14.81951 0.837,0 1.599,0.93279 2.661,3.25124 6.654,14.53159 18.084,23.14856 32.004,24.12633 6.411,0.4499 6.51,0.53388 8.673,7.30928 l 1.02,3.19125 -2.34,-0.3929 c -1.29,-0.21895 -4.473,-0.47989 -7.08,-0.58487 -6.171,-0.24294 -15.636,-6.01058 -15.687,-9.56175 -0.006,-0.35392 -0.246,-0.27294 -0.534,0.17996 -0.564,0.89379 -0.333,4.18401 0.597,8.47301 2.661,12.26412 12.921,25.12509 27.996,35.09175 l 4.35,2.87632 v 2.87033 c 0,1.58063 -0.261,3.56016 -0.582,4.39997 l -0.579,1.52664 -4.389,-3.13726 c -2.412,-1.7246 -5.727,-3.81211 -7.368,-4.63392 -4.464,-2.24347 -9.015,-7.02435 -10.065,-10.56951 l -0.867,-2.93031 -0.684,2.50441 c -4.716,17.20096 -0.234,39.19779 11.088,54.4462 2.91,3.91708 3.084,4.72389 1.716,7.99612 -1.812,4.33699 -4.47,6.19055 -4.47,3.11627 0,-2.37844 -1.2,-4.241 -5.778,-8.97689 -4.953,-5.12279 -5.835,-7.19831 -7.908,-18.59563 l -0.492,-2.69936 -1.602,3.11026 c -7.839,15.22743 -11.934,37.19127 -10.569,56.69568 0.726,10.41355 0.807,10.20061 -5.631,15.23342 -4.308,3.37121 -5.229,3.70113 -4.023,1.44566 1.944,-3.62914 2.391,-7.08733 2.247,-17.4499 -0.153,-11.0644 0.657,-15.40438 3.852,-20.64115 1.989,-3.26323 0.978,-3.56016 -3.867,-1.13673 -11.103,5.5517 -21.504,17.57287 -30.54,35.29271 -8.586,16.83504 -15.87,25.17008 -26.979,30.86274 -5.991,3.07128 -5.991,3.07128 -5.544,-4.02205 0.453,-7.2193 -0.645,-26.18685 -1.938,-33.40615 -0.531,-2.9693 -1.002,-5.77664 -1.047,-6.24153 -0.045,-0.46489 2.349,-2.48342 5.319,-4.48995 2.97,-2.00653 7.248,-5.49771 9.51,-7.76217 l 4.107,-4.11204 3.432,1.53864 c 16.539,7.42026 29.73,1.50865 37.455,-16.79005 1.863,-4.41197 1.668,-4.60392 -1.605,-1.58963 -3.21,2.9573 -4.191,3.48218 -7.449,3.98006 -3.231,0.49189 -3.24,0.51588 1.041,-3.56316 4.944,-4.71789 7.005,-8.12809 7.767,-12.85798 0.345,-2.14449 0.9,-4.84086 1.236,-5.99559 0.333,-1.15173 0.606,-2.15949 0.606,-2.23747 0,-0.078 -1.779,0.8368 -3.957,2.03052 -3.678,2.02452 -4.443,2.20448 -10.986,2.62438 -7.38,0.47089 -12.063,1.86557 -14.208,4.23201 -5.685,6.28052 -2.355,-6.34051 3.543,-13.42485 l 3.009,-3.61415 -3.252,0.38691 c -3.813,0.4529 -9.168,2.31246 -10.974,3.80911 -8.142,6.74541 -10.446,13.06193 -9.756,26.75971 0.522,10.34157 -0.426,11.80523 -12.537,19.35145 -5.121,3.19125 -5.832,3.07128 -6.9,-1.14873 -0.345,-1.36468 -1.689,-6.12456 -2.988,-10.57851 -3.417,-11.72125 -4.956,-26.35781 -3.927,-37.34723 l 0.435,-4.64291 2.499,-0.006 c 3.228,-0.006 7.269,-1.95254 13.542,-6.52047 6.213,-4.52294 7.233,-4.60392 14.703,-1.14573 11.034,5.1048 18.975,2.9843 25.521,-6.8204 2.934,-4.39097 3.222,-5.9446 0.783,-4.21101 -4.584,3.25424 -10.404,4.02205 -14.532,1.91655 -4.095,-2.08751 -3.831,-2.45342 2.382,-3.30222 7.005,-0.95378 15.111,-6.73642 17.955,-12.804 1.764,-3.76711 1.557,-4.05204 -1.815,-2.5224 -3.399,1.54163 -6.573,1.53864 -9.615,-0.012 -3.375,-1.72459 -9.396,-1.7126 -12.339,0.024 -1.176,0.69284 -2.28,1.11874 -2.454,0.94478 -0.726,-0.72883 3.381,-6.07357 5.982,-7.78017 3.474,-2.28246 3.363,-2.84033 -0.762,-3.80611 -8.055,-1.88355 -14.001,1.49665 -17.892,10.16462 -1.479,3.29922 -2.136,5.55469 -3.408,11.74824 -0.513,2.48641 -13.869,16.93402 -15.657,16.93402 -2.445,0 -0.654,-5.19778 7.329,-21.295 3.801,-7.6662 6.75,-14.4746 7.536,-17.39591 1.974,-7.36327 1.959,-7.33928 5.217,-8.30505 3.981,-1.18172 7.593,-3.05628 11.463,-5.9476 2.901,-2.16549 3.372,-2.33645 4.5,-1.63162 11.133,6.95537 20.517,5.05081 25.779,-5.23077 1.881,-3.68014 0.987,-4.07304 -3.579,-1.56863 -5.493,3.01129 -12.24,2.1235 -12.24,-1.61062 0,-2.30646 0.879,-2.78635 5.805,-3.17926 6.372,-0.50688 9.957,-2.81034 12.258,-7.87015 1.893,-4.16902 1.521,-5.23977 -1.263,-3.64714 -0.936,0.53388 -3.258,0.8638 -6.168,0.87879 -5.604,0.024 -8.118,0.96578 -10.323,3.8571 -3.234,4.238 -6.906,2.48341 -4.623,-2.20748 0.678,-1.39168 1.68,-3.81511 2.226,-5.38374 0.546,-1.57163 1.518,-3.13726 2.157,-3.47918 1.998,-1.07075 0.624,-1.91355 -2.382,-1.46366 -7.857,1.17873 -10.947,6.13356 -11.376,18.23872 -0.354,10.08063 -2.616,13.41584 -10.617,15.65632 -3.498,0.97777 -3.972,0.48288 -3.177,-3.30223 2.22,-10.55452 0.348,-31.01271 -3.729,-40.70943 l -1.752,-4.17502 2.139,-2.36644 c 6.621,-7.32728 4.647,-20.29023 -3.987,-26.18085 -3.897,-2.65738 -3.888,-2.66937 -3.888,5.29676 0,3.93207 -0.21,7.35727 -0.465,7.61221 -1.155,1.15473 -9.408,-8.56899 -10.878,-12.81899 -0.957,-2.76235 -1.437,-2.79235 -3.183,-0.20095 -1.977,2.93031 -1.83,7.39926 0.456,13.85674 0.993,2.80434 1.971,5.59369 2.172,6.20254 0.492,1.48465 -5.025,-1.2507 -7.725,-3.8301 -2.463,-2.35145 -2.505,-2.31845 -2.085,1.7006 0.993,9.51077 5.907,13.28688 17.319,13.31087 5.574,0.009 6.45,0.14997 6.726,1.06176 2.529,8.32904 3.888,33.97901 2.25,42.44002 -2.136,11.03441 -7.782,20.93208 -10.731,18.81158 -8.004,-5.74965 -13.371,-11.0674 -12.924,-12.80399 2.526,-9.7867 -2.067,-20.98007 -11.862,-28.90721 -4.803,-3.88708 -5.07,-3.69513 -2.838,2.05152 0.996,2.5584 1.953,6.25953 2.133,8.22107 l 0.324,3.56916 -2.946,-2.10251 c -4.218,-3.01129 -5.778,-3.53616 -10.494,-3.53616 -5.175,0 -8.286,-1.42167 -10.527,-4.81087 -2.334,-3.52118 -2.856,-3.07728 -2.421,2.05751 0.714,8.44602 3.558,13.36786 9.315,16.11822 3.417,1.63461 3.921,3.11326 1.236,3.65014 -2.961,0.59386 -8.304,0.44989 -9.627,-0.26094 -2.145,-1.14573 0.165,2.38444 3.816,5.83663 7.968,7.53423 13.713,8.55999 28.986,5.18278 0.999,-0.22195 11.91,7.61821 17.223,12.37209 0.246,0.22195 -0.795,2.41443 -2.313,4.87386 -10.608,17.16796 -14.814,38.46296 -11.454,58.00637 0.996,5.80363 0.543,6.21154 -3.582,3.22724 -6.495,-4.7059 -8.238,-8.69496 -8.064,-18.46966 0.258,-14.58258 -3.711,-21.86186 -14.697,-26.96966 -6.936,-3.22425 -10.965,-3.76712 -7.971,-1.07075 2.604,2.34245 4.719,6.95236 4.725,10.29058 0.006,3.8151 -0.135,3.8391 -3.036,0.54287 -2.925,-3.32022 -6.705,-4.85886 -10.632,-4.32498 -9.888,1.34668 -13.956,0.16496 -15.432,-4.48395 -0.936,-2.95131 -1.656,-1.03176 -1.281,3.4132 0.9,10.6445 7.596,17.92379 18.444,20.05929 4.05,0.79481 4.377,1.52964 1.698,3.78511 -3.363,2.82833 -8.496,1.72159 -16.248,-3.49718 -4.095,-2.75635 -4.212,-2.1565 -0.912,4.62791 6.621,13.6108 18.396,18.20872 32.805,12.81599 2.475,-0.92678 4.938,-1.82357 5.475,-1.99153 1.968,-0.61486 20.133,18.12174 23.001,23.72142 4.167,8.14009 8.337,35.17274 8.031,52.05877 -0.234,13.03794 -0.093,12.62403 -3.939,11.58628 -14.613,-3.95008 -25.383,-14.12069 -35.352,-33.37916 -10.134,-19.5734 -19.305,-30.39486 -30.642,-36.1535 -5.439,-2.76535 -5.826,-2.5704 -3.813,1.90755 3.045,6.76641 3.654,10.56951 3.489,21.78088 -0.141,9.46278 -0.057,10.36556 1.206,13.10392 1.632,3.53317 1.44,3.88409 -1.227,2.23747 -4.83,-2.98429 -8.37,-7.66919 -7.896,-10.44654 2.874,-16.85304 -1.362,-43.33082 -10.026,-62.65228 -1.851,-4.12703 -1.971,-4.04305 -2.778,1.98853 -0.915,6.8324 -2.901,10.98942 -7.563,15.82129 -4.305,4.45995 -5.766,6.91637 -5.766,9.69372 v 1.93454 l -1.467,-1.37667 c -4.287,-4.02806 -4.584,-7.87315 -0.984,-12.80399 10.329,-14.15368 15.069,-35.25972 11.514,-51.28195 -0.789,-3.55417 -1.863,-5.5427 -1.863,-3.44319 0,3.45818 -4.521,8.31104 -11.472,12.3181 -2.436,1.40367 -5.865,3.62015 -7.623,4.92484 -3.78,2.80734 -3.636,2.87933 -4.098,-2.06951 l -0.366,-3.90508 2.814,-2.03052 c 19.035,-13.71878 26.649,-23.21455 30.057,-37.4792 1.905,-7.97512 1.344,-8.65896 -3.228,-3.95907 -4.425,4.54993 -6.744,5.58169 -13.134,5.84863 -2.82,0.11697 -5.931,0.38991 -6.915,0.60586 l -1.794,0.3929 0.429,-2.31245 c 0.237,-1.2747 1.104,-3.55717 1.929,-5.07781 l 1.497,-2.76235 5.502,-0.36292 c 10.905,-0.72283 18.282,-4.77487 25.737,-14.13567 3.177,-3.98607 7.26,-10.86045 7.335,-12.3451 0.018,-0.31493 0.84,-0.74383 1.83,-0.95078 5.868,-1.23271 12.462,-6.70642 17.661,-14.66955 3.792,-5.80664 3.804,-5.69866 -0.711,-5.69866 -2.061,0 -6.045,-0.40491 -8.85,-0.89979 -2.805,-0.49488 -6.18,-0.90879 -7.5,-0.91779 l -2.4,-0.021 1.422,-1.18472 c 3.615,-3.01129 7.878,-3.34722 25.632,-2.01853 8.994,0.67184 15.699,-2.1085 22.791,-9.44778 5.418,-5.60868 5.118,-7.50124 -0.702,-4.40596 -2.979,1.58363 -5.988,1.81157 -12.843,0.98077 -4.818,-0.58487 -2.613,-1.55664 6.798,-2.9963 9.849,-1.50565 14.757,-3.77011 17.691,-8.16108 5.418,-8.1041 -14.532,-5.60568 -23.451,2.93631 -3.015,2.89132 -4.038,3.34721 -4.038,1.80258 0,-2.80135 2.97,-5.95061 7.596,-8.05311 8.988,-4.08804 3.582,-7.21331 -7.731,-4.47195 m -48.498,53.33347 c 1.698,1.14273 4.629,2.5254 6.51,3.07727 6.666,1.94954 6.66,1.94355 2.661,1.99453 -2.952,0.039 -4.92,-0.4049 -9.138,-2.05151 -2.955,-1.15473 -5.784,-2.09951 -6.288,-2.09951 -1.386,0 -1.089,-1.52964 0.438,-2.26747 2.058,-0.99276 2.493,-0.89079 5.817,1.34669 m 180.063,-1.16373 c 2.043,1.05575 2.319,2.08451 0.558,2.08451 -0.669,0 -3.633,0.94478 -6.588,2.09951 -4.248,1.65861 -6.162,2.08751 -9.138,2.03952 -3.519,-0.06 -3.627,-0.099 -1.662,-0.64485 5.775,-1.59863 7.092,-2.1265 10.461,-4.19901 4.233,-2.60339 4.071,-2.5674 6.369,-1.37968"
       stroke="none"
       fill="#fbc724"
       fill-rule="evenodd"
       style="stroke-width:2.99965" />
  </g>
</svg>
