<?xml version="1.0" encoding="utf-8"?>
<!DOCTYPE svg PUBLIC "-//W3C//DTD SVG 20010904//EN" "http://www.w3.org/TR/2001/REC-SVG-20010904/DTD/svg10.dtd">
<svg version="1.0" xmlns="http://www.w3.org/2000/svg" width="1200px" height="600px" viewBox="0 0 1200 600" preserveAspectRatio="xMidYMid meet">
 <g fill="#000000">
  <path d="M131.8 104.2 c-118.4 -88.7 -131.7 -99 -131.8 -101.4 l0 -2.8 600 0 600 0 0 101.5 0 101.5 -468.2 0 -468.3 0 -131.7 -98.8z"/>
 </g>
 <g fill="#268024">
  <path d="M0 597.3 c0.1 -2.5 13.4 -12.8 131.9 -101.6 l131.8 -98.7 468.1 0 468.2 0 0 101.5 0 101.5 -600 0 -600 0 0 -2.7z"/>
 </g>
 <g fill="#e4312b">
  <path d="M0 300 l0 -300 133.3 99.9 c117.2 87.9 133.7 99.9 137.2 100.3 3.5 0.3 12.2 6.5 67.7 48.2 l63.8 47.8 0 3.8 0 3.8 -63.7 47.8 c-55.6 41.7 -64.3 47.9 -67.8 48.2 -3.5 0.4 -20 12.4 -137.2 100.3 l-133.3 99.9 0 -300z"/>
 </g>
 <g fill="#ffffff">
  <path d="M332.8 350.4 c36.4 -27.3 66.2 -50 66.2 -50.4 0 -0.4 -29.8 -23.1 -66.2 -50.4 l-66.1 -49.6 466.6 0 466.7 0 0 100 0 100 -466.7 0 -466.6 0 66.1 -49.6z"/>
 </g>
</svg>