<svg height="3456" viewBox="0 0 1371.6 914.4" width="5184" xmlns="http://www.w3.org/2000/svg"><path d="m0 0h1371.6v914.40002h-1371.6z" fill="#ee2436" stroke-width="1.41421"/><path d="m.000488 457.19995h1371.600012v457.20004h-1371.600012z" fill="#fff" stroke-width=".3175"/><path d="m457.99329 228.5999a168.275 168.275 0 1 1 -336.55 0 168.275 168.275 0 1 1 336.55 0z" fill="#fff"/><path d="m534.16199 228.5999a168.275 168.275 0 1 1 -336.55 0 168.275 168.275 0 1 1 336.55 0z" fill="#ee2436"/><g fill="#fff"><path d="m447.80269 234.2201 9.8369-30.275-25.7534-18.711h31.833l9.837-30.275 9.8369 30.275h31.833l-25.7534 18.711 9.8368 30.275-25.7534-18.711z"/><path d="m356.00849 167.5259 9.8368-30.275-25.7534-18.711h31.833l9.837-30.275101 9.8369 30.275101h31.833l-25.7534 18.711 9.8368 30.275-25.7534-18.711z"/><path d="m412.74069 342.1313 9.8369-30.275-25.7534-18.711h31.833l9.837-30.275 9.8369 30.275h31.833l-25.7534 18.711 9.8368 30.275-25.7534-18.711z"/><path d="m299.27599 342.1312 9.8369-30.275-25.7534-18.7109h31.833l9.837-30.2751 9.8369 30.2751h31.833l-25.7534 18.7109 9.8368 30.275-25.7534-18.711z"/><path d="m264.21419 234.2202 9.8368-30.2749-25.7534-18.711h31.833l9.837-30.2751 9.8369 30.2751h31.833l-25.7534 18.711 9.8368 30.2749-25.7534-18.711z"/></g></svg>