<?xml version="1.0" encoding="UTF-8" standalone="no"?>
<svg
   xmlns:dc="http://purl.org/dc/elements/1.1/"
   xmlns:cc="http://creativecommons.org/ns#"
   xmlns:rdf="http://www.w3.org/1999/02/22-rdf-syntax-ns#"
   xmlns:svg="http://www.w3.org/2000/svg"
   xmlns="http://www.w3.org/2000/svg"
   xmlns:sodipodi="http://sodipodi.sourceforge.net/DTD/sodipodi-0.dtd"
   xmlns:inkscape="http://www.inkscape.org/namespaces/inkscape"
   width="675"
   height="450"
   version="1.1"
   id="svg84"
   sodipodi:docname="Flag_of_Sint_Maarten.svg"
   inkscape:version="0.92.3 (2405546, 2018-03-11)">
  <metadata
     id="metadata90">
    <rdf:RDF>
      <cc:Work
         rdf:about="">
        <dc:format>image/svg+xml</dc:format>
        <dc:type
           rdf:resource="http://purl.org/dc/dcmitype/StillImage" />
      </cc:Work>
    </rdf:RDF>
  </metadata>
  <defs
     id="defs88" />
  <sodipodi:namedview
     pagecolor="#ffffff"
     bordercolor="#666666"
     borderopacity="1"
     objecttolerance="10"
     gridtolerance="10"
     guidetolerance="10"
     inkscape:pageopacity="0"
     inkscape:pageshadow="2"
     inkscape:window-width="1920"
     inkscape:window-height="991"
     id="namedview86"
     showgrid="false"
     inkscape:zoom="0.52444444"
     inkscape:cx="0.76974882"
     inkscape:cy="132.16278"
     inkscape:window-x="-10"
     inkscape:window-y="-10"
     inkscape:window-maximized="1"
     inkscape:current-layer="svg84" />
  <path
     d="M0 0h675v450H0z"
     id="path2"
     fill="#012a87" />
  <path
     d="M0 0h675v225H0z"
     id="path4"
     fill="#dc171d" />
  <path
     d="M0 0v450l300-225z"
     id="path6"
     fill="#fff" />
  <g
     transform="matrix(3.7795276,0,0,3.7795275,565.38514,-184.83148)"
     id="g1791">
    <g
       id="g1577">
      <path
         d="m -109.49277,93.84238 0.0243,-0.921715 c 0,0 -0.49494,-0.788349 0.0795,-1.635432 0,0 -1.22031,-0.645573 -0.93633,-1.656524 0,0 -1.10346,-0.282144 -1.02233,-1.495902 0,0 -1.19109,-0.08258 -1.31442,-1.096613 0,0 -1.1911,0.196154 -1.71525,-0.791921 0,0 -1.16189,0.227144 -1.48968,-0.587328 0,0 -1.12943,0.391174 -1.79963,-0.566234 0,0 -1.19272,0.481868 -1.69252,-0.421838 -0.49332,0.900622 -1.68604,0.421838 -1.68604,0.421838 -0.66208,0.954002 -1.79963,0.558121 -1.79963,0.558121 -0.31643,0.817718 -1.47508,0.585708 -1.47508,0.585708 -0.52252,0.988234 -1.71199,0.791755 -1.71199,0.791755 -0.11684,1.010951 -1.30632,1.093535 -1.30632,1.093535 0.0941,1.216839 -1.00772,1.492816 -1.00772,1.492816 0.29047,1.010788 -0.92821,1.65474 -0.92821,1.65474 0.58905,0.851951 0.099,1.633972 0.099,1.633972 l -0.0276,0.850002 19.71315,0.09102 h -0.003 z"
         style="fill:#f9d90f;fill-opacity:1;stroke:#000000;stroke-width:0.10583333;stroke-miterlimit:4;stroke-dasharray:none"
         id="path184-4"
         inkscape:connector-curvature="0" />
      <g
         id="g2141"
         transform="matrix(0.49469158,0,0,0.4944292,-98.3419,125.39172)"
         style="stroke-width:2.02199769">
        <path
           sodipodi:nodetypes="cccccccccccccccccccscscccccccc"
           inkscape:connector-curvature="0"
           id="path18341"
           d="m -42.413157,-75.046209 c 1.067715,1.078662 0.06951,1.668045 -0.91539,1.114391 -2.434711,-1.843447 -5.280078,-2.865586 -9.193712,-1.751185 -5.623062,0.02056 -11.596579,-0.318074 -14.327859,2.666577 -0.194511,0.575847 -1.719421,2.745298 4.178959,-0.437798 -0.367732,2.201238 2.376122,0.401865 4.497355,-0.596993 -1.461508,1.528506 2.237473,1.779196 4.576956,0.278596 -1.149977,1.543447 0.869942,1.501944 2.785972,1.512388 2.802506,0.08773 1.254371,2.526225 -3.542165,2.626772 -0.349739,-0.02429 -1.694542,0.606732 0.119399,1.07459 0.840094,0.04174 0.156705,1.213813 3.06457,-0.278596 -0.180654,0.873413 1.065395,0.704233 2.825774,0.159197 0.998371,0.784918 1.808673,-0.02873 2.666574,-0.437795 3.674036,1.436811 8.525367,2.875441 9.830504,-2.10938 3.066301,-0.353381 5.604227,-0.80363 4.230253,-1.971062 3.994476,1.629331 4.225748,1.000739 4.1651,0.196999 1.91566,0.724177 4.143719,1.704684 3.236397,0.112569 1.841685,0.470765 3.858786,0.63455 5.431517,1.575986 1.593514,0.825642 1.07791,-0.616961 0.703564,-1.266418 -0.816118,-1.306481 -1.848106,-1.691881 -4.175307,-1.739638 -1.973337,-0.04049 -11.220828,-2.61988 -16.031062,0.163655 0,0 0.11257,0 0.02814,0 -0.08443,0 -1.998123,-1.801127 -1.998123,-1.801127 0.440293,-0.01177 0.758121,-0.233463 1.013132,-0.562851 1.876171,0.09452 3.752345,-0.08524 5.628516,-0.590994 0.854808,-0.266891 1.342173,0.242149 1.322699,0.619135 0.781921,-1.376087 -0.300643,-1.661014 -1.09756,-1.604126 -3.173783,0.179922 -5.079,0.01386 -6.613504,-0.253283 -3.042108,-1.518396 -6.703605,0.81108 -3.320825,2.729831 z"
           style="fill:#bc715f;fill-opacity:1;stroke:#000000;stroke-width:0.21399477;stroke-linecap:butt;stroke-linejoin:miter;stroke-miterlimit:4;stroke-dasharray:none;stroke-opacity:1" />
        <path
           sodipodi:nodetypes="ccc"
           inkscape:connector-curvature="0"
           id="path18347"
           d="m -41.698044,-77.741535 c -0.636611,0.09486 -1.293688,0.171207 -1.547842,0.612103 0.01868,-0.725562 1.098646,-0.775647 1.547842,-0.612103 z"
           style="fill:#000000;stroke:#000000;stroke-width:0.53498691px;stroke-linecap:butt;stroke-linejoin:miter;stroke-opacity:0" />
        <ellipse
           id="path18349"
           style="fill:#000000;fill-opacity:1;stroke:#000000;stroke-width:0.16049607;stroke-miterlimit:4;stroke-dasharray:none;stroke-opacity:0"
           cx="-42.035759"
           cy="-77.474182"
           rx="0.27439013"
           ry="0.28142577" />
      </g>
    </g>
    <g
       id="g1570">
      <path
         style="fill:#dc171d;fill-opacity:1;stroke:#000000;stroke-width:0.10583333;stroke-miterlimit:4;stroke-dasharray:none"
         d="m -136.20673,91.440885 c 0.62152,3.52721 1.31138,7.142293 1.65055,10.834995 0.73834,5.46913 -2.58843,10.06089 -1.2237,15.46366 0.81462,2.59251 3.66568,4.09949 6.27507,4.39818 3.46159,0.65421 7.64626,0.002 10.17302,2.59106 2.52676,-2.58946 6.71143,-1.93685 10.17302,-2.59106 2.60939,-0.29869 5.46045,-1.80567 6.27507,-4.39818 1.36473,-5.40277 -1.96205,-9.99453 -1.2237,-15.46366 0.33916,-3.692702 1.02903,-7.307785 1.65055,-10.834995 -6.09323,3.308005 -12.11386,-0.995461 -16.87494,1.755965 -4.76108,-2.751426 -10.78171,1.55204 -16.87494,-1.755965 z"
         id="path1566"
         inkscape:connector-curvature="0" />
      <path
         inkscape:connector-curvature="0"
         id="path1576"
         d="m -133.93509,94.289864 c 0.53682,2.910212 1.13265,5.892926 1.4256,8.939686 0.6377,4.51243 -2.23565,8.30098 -1.05692,12.75867 0.70359,2.13902 3.16607,3.38239 5.41982,3.62883 2.98979,0.53977 6.60413,10e-4 8.78651,2.13781 2.18237,-2.13649 5.7967,-1.59804 8.7865,-2.13781 2.25375,-0.24644 4.71623,-1.48981 5.41982,-3.62883 1.17873,-4.45769 -1.69463,-8.24624 -1.05691,-12.75867 0.29293,-3.04676 0.88877,-6.029474 1.42558,-8.939686 -5.26276,2.729351 -10.46282,-0.82133 -14.57499,1.448803 -4.11218,-2.270133 -9.31224,1.280548 -14.57501,-1.448803 z"
         style="fill:#62afe1;fill-opacity:1;stroke:#000000;stroke-width:0.106;stroke-miterlimit:4;stroke-dasharray:none" />
      <g
         id="g2319"
         style="stroke-width:0.238125;stroke-miterlimit:4;stroke-dasharray:none"
         transform="translate(-32.179251,165.38638)">
        <path
           sodipodi:nodetypes="ccccccc"
           inkscape:connector-curvature="0"
           id="rect1283"
           d="m -90.037245,-62.937419 -6.157956,4.220264 v 5.08104 h 18.028798 v -5.08104 l -6.157957,-4.220264 z"
           style="opacity:1;vector-effect:none;fill:#ffffff;fill-opacity:1;stroke:#000000;stroke-width:0.238125;stroke-linecap:round;stroke-linejoin:miter;stroke-miterlimit:4;stroke-dasharray:none;stroke-dashoffset:0;stroke-opacity:1;paint-order:normal" />
        <path
           id="rect1279"
           d="m -97.657845,-54.477343 v 0.971342 h 0.592997 v 4.990032 h 19.768092 v -4.990032 h 0.592996 v -0.971342 z"
           style="opacity:1;vector-effect:none;fill:#ffffff;fill-opacity:1;stroke:#000000;stroke-width:0.238125;stroke-linecap:round;stroke-linejoin:miter;stroke-miterlimit:4;stroke-dasharray:none;stroke-dashoffset:0;stroke-opacity:1;paint-order:normal"
           inkscape:connector-curvature="0"
           sodipodi:nodetypes="ccccccccc" />
        <path
           id="path1295"
           d="m -87.181124,-68.440432 -2.856121,2.780017 v 2.722996 h 5.712885 v -2.722996 z"
           style="opacity:1;vector-effect:none;fill:#ffffff;fill-opacity:1;stroke:#000000;stroke-width:0.238125;stroke-linecap:round;stroke-linejoin:miter;stroke-miterlimit:4;stroke-dasharray:none;stroke-dashoffset:0;stroke-opacity:1;paint-order:normal"
           inkscape:connector-curvature="0" />
        <path
           inkscape:connector-curvature="0"
           style="opacity:1;vector-effect:none;fill:#ffffff;fill-opacity:1;stroke:#000000;stroke-width:0.238125;stroke-linecap:round;stroke-linejoin:miter;stroke-miterlimit:4;stroke-dasharray:none;stroke-dashoffset:0;stroke-opacity:1;paint-order:normal"
           d="m -95.305201,-58.027566 h 1.806391 v 2.860637 h -1.806391 z"
           id="path1304"
           sodipodi:nodetypes="ccccc" />
        <path
           id="path1308"
           d="m -90.177183,-58.027566 h 1.806391 v 2.860637 h -1.806391 z"
           style="opacity:1;vector-effect:none;fill:#ffffff;fill-opacity:1;stroke:#000000;stroke-width:0.238125;stroke-linecap:round;stroke-linejoin:miter;stroke-miterlimit:4;stroke-dasharray:none;stroke-dashoffset:0;stroke-opacity:1;paint-order:normal"
           inkscape:connector-curvature="0" />
        <path
           id="path1312"
           d="m -79.0568,-58.027566 h -1.806392 v 2.860637 h 1.806392 z"
           style="opacity:1;vector-effect:none;fill:#ffffff;fill-opacity:1;stroke:#000000;stroke-width:0.238125;stroke-linecap:round;stroke-linejoin:miter;stroke-miterlimit:4;stroke-dasharray:none;stroke-dashoffset:0;stroke-opacity:1;paint-order:normal"
           inkscape:connector-curvature="0"
           sodipodi:nodetypes="ccccc" />
        <path
           inkscape:connector-curvature="0"
           style="opacity:1;vector-effect:none;fill:#ffffff;fill-opacity:1;stroke:#000000;stroke-width:0.238125;stroke-linecap:round;stroke-linejoin:miter;stroke-miterlimit:4;stroke-dasharray:none;stroke-dashoffset:0;stroke-opacity:1;paint-order:normal"
           d="m -84.184422,-58.027566 h -1.806391 v 2.860637 h 1.806391 z"
           id="path1314" />
        <path
           id="path1316"
           d="m -95.305201,-53.053079 h 1.806392 v 2.860637 h -1.806392 z"
           style="opacity:1;vector-effect:none;fill:#ffffff;fill-opacity:1;stroke:#000000;stroke-width:0.238125;stroke-linecap:round;stroke-linejoin:miter;stroke-miterlimit:4;stroke-dasharray:none;stroke-dashoffset:0;stroke-opacity:1;paint-order:normal"
           inkscape:connector-curvature="0" />
        <path
           inkscape:connector-curvature="0"
           style="opacity:1;vector-effect:none;fill:#ffffff;fill-opacity:1;stroke:#000000;stroke-width:0.238125;stroke-linecap:round;stroke-linejoin:miter;stroke-miterlimit:4;stroke-dasharray:none;stroke-dashoffset:0;stroke-opacity:1;paint-order:normal"
           d="m -79.0568,-53.053079 h -1.806392 v 2.860637 h 1.806392 z"
           id="path1318" />
        <path
           id="path1320"
           d="m -85.764934,-53.215 h -2.831799 v 4.699029 h 2.831799 z"
           style="opacity:1;vector-effect:none;fill:#ffffff;fill-opacity:1;stroke:#000000;stroke-width:0.238125;stroke-linecap:round;stroke-linejoin:miter;stroke-miterlimit:4;stroke-dasharray:none;stroke-dashoffset:0;stroke-opacity:1;paint-order:normal"
           inkscape:connector-curvature="0"
           sodipodi:nodetypes="ccccc" />
        <path
           sodipodi:nodetypes="ccccc"
           inkscape:connector-curvature="0"
           style="opacity:1;vector-effect:none;fill:#ffffff;fill-opacity:1;stroke:#000000;stroke-width:0.238125;stroke-linecap:round;stroke-linejoin:miter;stroke-miterlimit:4;stroke-dasharray:none;stroke-dashoffset:0;stroke-opacity:1;paint-order:normal"
           d="M -90.243072,-54.477345 H -91.513 v 5.961375 h 1.269928 z"
           id="path1322" />
        <path
           sodipodi:nodetypes="ccccc"
           id="path1326"
           d="M -84.118533,-54.477345 H -82.848 v 5.961375 h -1.270533 z"
           style="opacity:1;vector-effect:none;fill:#ffffff;fill-opacity:1;stroke:#000000;stroke-width:0.238125;stroke-linecap:round;stroke-linejoin:miter;stroke-miterlimit:4;stroke-dasharray:none;stroke-dashoffset:0;stroke-opacity:1;paint-order:normal"
           inkscape:connector-curvature="0" />
        <path
           id="path1328"
           d="m -82.376543,-54.273 v -1.47238 h -9.60858 v 1.47238 z"
           style="opacity:1;vector-effect:none;fill:#ffffff;fill-opacity:1;stroke:#000000;stroke-width:0.238125;stroke-linecap:round;stroke-linejoin:miter;stroke-miterlimit:4;stroke-dasharray:none;stroke-dashoffset:0;stroke-opacity:1;paint-order:normal"
           inkscape:connector-curvature="0"
           sodipodi:nodetypes="ccccc" />
        <path
           inkscape:connector-curvature="0"
           id="path1330"
           d="m -90.037237,-65.660415 h 5.712882"
           style="fill:#ffffff;stroke:#000000;stroke-width:0.238125;stroke-linecap:butt;stroke-linejoin:miter;stroke-miterlimit:4;stroke-dasharray:none;stroke-opacity:1" />
        <path
           inkscape:connector-curvature="0"
           id="path1332"
           d="m -96.195199,-58.717154 h 18.028793"
           style="fill:#ffffff;stroke:#000000;stroke-width:0.238125;stroke-linecap:butt;stroke-linejoin:miter;stroke-miterlimit:4;stroke-dasharray:none;stroke-opacity:1" />
        <path
           id="rect1277"
           d="m -98.110655,-49.138664 h 21.859643 v 1.544835 h -21.859643 z"
           style="opacity:1;vector-effect:none;fill:#ffffff;fill-opacity:1;stroke:#000000;stroke-width:0.238125;stroke-linecap:round;stroke-linejoin:miter;stroke-miterlimit:4;stroke-dasharray:none;stroke-dashoffset:0;stroke-opacity:1;paint-order:normal"
           inkscape:connector-curvature="0" />
        <path
           inkscape:connector-curvature="0"
           style="opacity:1;vector-effect:none;fill:#ffffff;fill-opacity:1;stroke:#000000;stroke-width:0.238125;stroke-linecap:round;stroke-linejoin:miter;stroke-miterlimit:4;stroke-dasharray:none;stroke-dashoffset:0;stroke-opacity:1;paint-order:normal"
           d="m -86.091005,-65.071 h -2.179992 v 1.544 h 2.179992 z"
           id="path1334"
           sodipodi:nodetypes="ccccc" />
        <path
           inkscape:connector-curvature="0"
           id="path1525"
           d="M -91.298796,-55.745379 V -54.273"
           style="fill:none;stroke:#000000;stroke-width:0.26458332;stroke-linecap:butt;stroke-linejoin:miter;stroke-miterlimit:4;stroke-dasharray:none;stroke-opacity:1"
           sodipodi:nodetypes="cc" />
        <path
           style="fill:none;stroke:#000000;stroke-width:0.26458332;stroke-linecap:butt;stroke-linejoin:miter;stroke-miterlimit:4;stroke-dasharray:none;stroke-opacity:1"
           d="M -83.062864,-55.745379 V -54.273"
           id="path1531"
           inkscape:connector-curvature="0"
           sodipodi:nodetypes="cc" />
        <path
           inkscape:connector-curvature="0"
           id="path1533"
           d="M -83.749192,-55.745379 V -54.273"
           style="fill:none;stroke:#000000;stroke-width:0.26458332;stroke-linecap:butt;stroke-linejoin:miter;stroke-miterlimit:4;stroke-dasharray:none;stroke-opacity:1"
           sodipodi:nodetypes="cc" />
        <path
           style="fill:none;stroke:#000000;stroke-width:0.26458332;stroke-linecap:butt;stroke-linejoin:miter;stroke-miterlimit:4;stroke-dasharray:none;stroke-opacity:1"
           d="M -84.43552,-55.745379 V -54.273"
           id="path1535"
           inkscape:connector-curvature="0"
           sodipodi:nodetypes="cc" />
        <path
           inkscape:connector-curvature="0"
           id="path1537"
           d="M -85.121847,-55.745379 V -54.273"
           style="fill:none;stroke:#000000;stroke-width:0.26458332;stroke-linecap:butt;stroke-linejoin:miter;stroke-miterlimit:4;stroke-dasharray:none;stroke-opacity:1"
           sodipodi:nodetypes="cc" />
        <path
           style="fill:none;stroke:#000000;stroke-width:0.26458332;stroke-linecap:butt;stroke-linejoin:miter;stroke-miterlimit:4;stroke-dasharray:none;stroke-opacity:1"
           d="M -85.808175,-55.745379 V -54.273"
           id="path1539"
           inkscape:connector-curvature="0"
           sodipodi:nodetypes="cc" />
        <path
           inkscape:connector-curvature="0"
           id="path1541"
           d="M -86.494502,-55.745379 V -54.273"
           style="fill:none;stroke:#000000;stroke-width:0.26458332;stroke-linecap:butt;stroke-linejoin:miter;stroke-miterlimit:4;stroke-dasharray:none;stroke-opacity:1"
           sodipodi:nodetypes="cc" />
        <path
           style="fill:none;stroke:#000000;stroke-width:0.26458332;stroke-linecap:butt;stroke-linejoin:miter;stroke-miterlimit:4;stroke-dasharray:none;stroke-opacity:1"
           d="M -87.18083,-55.745379 V -54.273"
           id="path1543"
           inkscape:connector-curvature="0"
           sodipodi:nodetypes="cc" />
        <path
           inkscape:connector-curvature="0"
           id="path1545"
           d="M -87.867158,-55.745379 V -54.273"
           style="fill:none;stroke:#000000;stroke-width:0.26458332;stroke-linecap:butt;stroke-linejoin:miter;stroke-miterlimit:4;stroke-dasharray:none;stroke-opacity:1"
           sodipodi:nodetypes="cc" />
        <path
           style="fill:none;stroke:#000000;stroke-width:0.26458332;stroke-linecap:butt;stroke-linejoin:miter;stroke-miterlimit:4;stroke-dasharray:none;stroke-opacity:1"
           d="M -88.553485,-55.745379 V -54.273"
           id="path1547"
           inkscape:connector-curvature="0"
           sodipodi:nodetypes="cc" />
        <path
           inkscape:connector-curvature="0"
           id="path1549"
           d="M -89.239813,-55.745379 V -54.273"
           style="fill:none;stroke:#000000;stroke-width:0.26458332;stroke-linecap:butt;stroke-linejoin:miter;stroke-miterlimit:4;stroke-dasharray:none;stroke-opacity:1"
           sodipodi:nodetypes="cc" />
        <path
           style="fill:none;stroke:#000000;stroke-width:0.26458332;stroke-linecap:butt;stroke-linejoin:miter;stroke-miterlimit:4;stroke-dasharray:none;stroke-opacity:1"
           d="M -89.926141,-55.745379 V -54.273"
           id="path1551"
           inkscape:connector-curvature="0"
           sodipodi:nodetypes="cc" />
        <path
           inkscape:connector-curvature="0"
           id="path1553"
           d="M -90.612468,-55.745379 V -54.273"
           style="fill:none;stroke:#000000;stroke-width:0.26458332;stroke-linecap:butt;stroke-linejoin:miter;stroke-miterlimit:4;stroke-dasharray:none;stroke-opacity:1"
           sodipodi:nodetypes="cc" />
        <path
           inkscape:connector-curvature="0"
           id="path1555"
           d="M -82.376543,-55.644999 V -54.273"
           style="fill:none;stroke:#000000;stroke-width:0.238125;stroke-linecap:butt;stroke-linejoin:miter;stroke-miterlimit:4;stroke-dasharray:none;stroke-opacity:1" />
      </g>
      <g
         id="g1507">
        <g
           id="g2185"
           style="fill:#008830;fill-opacity:1;stroke:#000000;stroke-width:0.25524598;stroke-miterlimit:4;stroke-dasharray:none;stroke-opacity:1"
           transform="matrix(0.46650884,0,0,0.46641481,-114.37302,136.44148)">
          <path
             sodipodi:nodetypes="ccc"
             inkscape:connector-curvature="0"
             id="path19152-8-7-9-6-9"
             d="m -30.5428,-85.287075 c 2.908742,1.856436 4.284298,3.573082 4.291153,5.164939 -3.620034,-0.192397 -6.893417,-1.896607 -4.291153,-5.164939 z"
             style="fill:#008830;fill-opacity:1;stroke:#000000;stroke-width:0.25524598;stroke-linecap:butt;stroke-linejoin:miter;stroke-miterlimit:4;stroke-dasharray:none;stroke-opacity:1" />
          <path
             sodipodi:nodetypes="ccc"
             inkscape:connector-curvature="0"
             id="path19152-8-2-2-7-7-5"
             d="m -28.200337,-83.598226 c 2.801201,1.593887 4.379571,3.329254 4.866314,5.190934 -2.845607,0.495168 -5.881537,-0.848005 -4.866314,-5.190934 z"
             style="fill:#008830;fill-opacity:1;stroke:#000000;stroke-width:0.25524598;stroke-linecap:butt;stroke-linejoin:miter;stroke-miterlimit:4;stroke-dasharray:none;stroke-opacity:1" />
          <path
             sodipodi:nodetypes="ccc"
             inkscape:connector-curvature="0"
             id="path19152-8-7-0-4-3"
             d="m -31.821457,-80.859122 c 0.37718,3.200773 -0.08455,5.500677 -1.295188,6.99638 -2.085824,-1.997999 -2.80407,-5.23916 1.295188,-6.99638 z"
             style="fill:#008830;fill-opacity:1;stroke:#000000;stroke-width:0.25524598;stroke-linecap:butt;stroke-linejoin:miter;stroke-miterlimit:4;stroke-dasharray:none;stroke-opacity:1" />
          <path
             sodipodi:nodetypes="ccc"
             inkscape:connector-curvature="0"
             id="path19152-8-2-2-8-4-5"
             d="m -31.817819,-80.849303 c 2.631337,1.860989 4.031864,3.742819 4.333632,5.643266 -2.880455,0.213638 -5.769983,-1.420871 -4.333632,-5.643266 z"
             style="fill:#008830;fill-opacity:1;stroke:#000000;stroke-width:0.25524598;stroke-linecap:butt;stroke-linejoin:miter;stroke-miterlimit:4;stroke-dasharray:none;stroke-opacity:1" />
          <path
             sodipodi:nodetypes="cccccccccccccc"
             inkscape:connector-curvature="0"
             id="path20134-0-5"
             d="m -30.070188,-83.411367 1.212503,0.757272 1.301208,-0.128386 0.545878,0.899226 c 0,0 -0.14637,1.84777 -0.147296,2.016408 -0.0011,0.168635 0.402024,1.202161 0.402024,1.202161 l -0.885666,0.643755 -2.37217,0.97197 -2.218679,-1.802304 -1.398559,0.144856 -0.613227,-1.737747 0.6892,-1.481558 1.731459,-1.124212 z"
             style="fill:#008830;fill-opacity:1;stroke:#000000;stroke-width:0.25524598;stroke-linecap:butt;stroke-linejoin:miter;stroke-miterlimit:4;stroke-dasharray:none;stroke-opacity:1" />
          <path
             sodipodi:nodetypes="ccc"
             inkscape:connector-curvature="0"
             id="path19152-22-9-7"
             d="m -32.347012,-82.491527 c -1.14005,3.014546 -2.609564,4.843013 -4.373197,5.612659 -0.930606,-2.734342 -0.07465,-5.941885 4.373197,-5.612659 z"
             style="fill:#008830;fill-opacity:1;stroke:#000000;stroke-width:0.25524598;stroke-linecap:butt;stroke-linejoin:miter;stroke-miterlimit:4;stroke-dasharray:none;stroke-opacity:1" />
          <path
             sodipodi:nodetypes="ccc"
             inkscape:connector-curvature="0"
             id="path19152-9-4-1-4"
             d="m -32.353118,-82.272016 c -3.162213,-0.622583 -5.209699,-1.767384 -6.262058,-3.378377 2.541389,-1.372587 5.846641,-1.062249 6.262058,3.378377 z"
             style="fill:#008830;fill-opacity:1;stroke:#000000;stroke-width:0.25524598;stroke-linecap:butt;stroke-linejoin:miter;stroke-miterlimit:4;stroke-dasharray:none;stroke-opacity:1" />
          <path
             sodipodi:nodetypes="ccc"
             inkscape:connector-curvature="0"
             id="path19152-8-7-1-1"
             d="m -26.306244,-82.164179 c 3.210304,0.284887 5.495965,-0.242856 6.956195,-1.496047 -2.057212,-2.027444 -5.317704,-2.652093 -6.956195,1.496047 z"
             style="fill:#008830;fill-opacity:1;stroke:#000000;stroke-width:0.25524598;stroke-linecap:butt;stroke-linejoin:miter;stroke-miterlimit:4;stroke-dasharray:none;stroke-opacity:1" />
          <path
             sodipodi:nodetypes="ccc"
             inkscape:connector-curvature="0"
             id="path19152-8-2-2-74-9"
             d="m -26.296324,-82.160824 c 1.935961,2.576676 3.857328,3.922453 5.765673,4.169391 0.130632,-2.885411 -1.586376,-5.726692 -5.765673,-4.169391 z"
             style="fill:#008830;fill-opacity:1;stroke:#000000;stroke-width:0.25524598;stroke-linecap:butt;stroke-linejoin:miter;stroke-miterlimit:4;stroke-dasharray:none;stroke-opacity:1" />
          <path
             sodipodi:nodetypes="ccc"
             inkscape:connector-curvature="0"
             id="path19152-8-1-5-1-3"
             d="m -27.30486,-80.585569 c 2.412753,2.136777 3.599762,4.160086 3.692532,6.082104 -2.886575,-0.101682 -5.580676,-2.041483 -3.692532,-6.082104 z"
             style="fill:#008830;fill-opacity:1;stroke:#000000;stroke-width:0.25524598;stroke-linecap:butt;stroke-linejoin:miter;stroke-miterlimit:4;stroke-dasharray:none;stroke-opacity:1" />
          <path
             sodipodi:nodetypes="ccc"
             inkscape:connector-curvature="0"
             id="path19152-8-1-0-8-3-8"
             d="m -28.299342,-77.044674 c 1.651053,2.76789 2.168509,5.055904 1.673987,6.915528 -2.719776,-0.972354 -4.698666,-3.637873 -1.673987,-6.915528 z"
             style="fill:#008830;fill-opacity:1;stroke:#000000;stroke-width:0.25524598;stroke-linecap:butt;stroke-linejoin:miter;stroke-miterlimit:4;stroke-dasharray:none;stroke-opacity:1" />
          <path
             sodipodi:nodetypes="ccc"
             inkscape:connector-curvature="0"
             id="path19152-8-1-7-5-5-5"
             d="m -29.460884,-77.223911 c 0.365604,3.202114 -0.104436,5.500335 -1.320474,6.991649 -2.078588,-2.005529 -2.78511,-5.249265 1.320474,-6.991649 z"
             style="fill:#008830;fill-opacity:1;stroke:#000000;stroke-width:0.25524598;stroke-linecap:butt;stroke-linejoin:miter;stroke-miterlimit:4;stroke-dasharray:none;stroke-opacity:1" />
        </g>
        <g
           transform="matrix(0.45532106,0,0,0.45523533,-114.80795,135.44556)"
           id="g2145"
           style="fill:#f9d90f;fill-opacity:1;stroke:#000000;stroke-width:0.26151592;stroke-miterlimit:4;stroke-dasharray:none;stroke-opacity:1">
          <path
             style="fill:#f9d90f;fill-opacity:1;stroke:#000000;stroke-width:0.26151592;stroke-miterlimit:4;stroke-dasharray:none;stroke-opacity:1"
             d="m -31.377936,-80.613179 c -0.237667,-0.168605 -0.416623,-0.461999 -0.458433,-0.751591 -0.03569,-0.247219 -0.0155,-0.406098 0.09589,-0.754568 0.05644,-0.17658 0.10123,-0.325146 0.09953,-0.330152 -0.0016,-0.005 -0.0458,-0.01797 -0.09805,-0.02865 -0.09098,-0.01873 -0.10211,-0.01291 -0.265734,0.138218 -0.559459,0.516811 -1.069983,0.764514 -1.419421,0.688689 -0.405153,-0.08791 -0.56021,-0.64965 -0.334843,-1.213059 0.191339,-0.478718 0.550503,-0.771649 1.009224,-0.823565 0.169791,-0.01921 0.24134,-0.01241 0.439314,0.04174 0.130064,0.03559 0.231709,0.05417 0.225862,0.04132 -0.0059,-0.01286 -0.104728,-0.08305 -0.219737,-0.15599 -0.565671,-0.358746 -0.900141,-0.773668 -0.922602,-1.144514 -0.0163,-0.269348 0.160004,-0.52779 0.46182,-0.676933 0.507272,-0.250677 1.142291,-0.07208 1.437563,0.404312 0.141764,0.228719 0.17852,0.41062 0.178088,0.881298 -2.51e-4,0.273032 0.01106,0.429482 0.03167,0.438124 0.01765,0.0073 0.06423,0.04986 0.103535,0.0944 l 0.07147,0.08095 0.280215,-0.229696 c 0.285458,-0.233997 0.492117,-0.376798 0.723963,-0.500253 0.320717,-0.17077 0.698619,-0.219109 0.887862,-0.113567 0.414706,0.231283 0.413004,0.985256 -0.0034,1.501497 -0.337812,0.418812 -0.851231,0.566449 -1.32011,0.379601 -0.105206,-0.04192 -0.254116,-0.09317 -0.330917,-0.113866 l -0.139628,-0.03764 0.216045,0.274722 c 0.291375,0.370515 0.45511,0.635733 0.567936,0.919949 0.212942,0.5364 0.104598,0.950039 -0.295301,1.127455 -0.307906,0.136605 -0.711338,0.08203 -1.021811,-0.138231 z"
             id="path19551-3-5-7-0"
             inkscape:connector-curvature="0"
             sodipodi:nodetypes="cccccccccccccccccccccccccccccc" />
          <path
             transform="rotate(21.727093)"
             style="fill:#f9d90f;fill-opacity:1;stroke:#000000;stroke-width:0.26151592;stroke-miterlimit:4;stroke-dasharray:none;stroke-opacity:1"
             d="m -59.336212,-65.639839 a 0.64891499,0.72938108 0 0 1 -0.648914,0.729381 0.64891499,0.72938108 0 0 1 -0.648915,-0.729381 0.64891499,0.72938108 0 0 1 0.648915,-0.729381 0.64891499,0.72938108 0 0 1 0.648914,0.729381 z"
             id="path19569-1-3-1-5"
             inkscape:connector-curvature="0" />
        </g>
        <g
           id="g1100"
           transform="matrix(0.46650884,0,0,0.46641481,-114.37302,136.34191)"
           style="fill:#f9d90f;fill-opacity:1;stroke:#000000;stroke-width:0.25524598;stroke-miterlimit:4;stroke-dasharray:none;stroke-opacity:1">
          <path
             inkscape:connector-curvature="0"
             id="path19551-7-6-4-4-1"
             d="m -28.65746,-84.002634 c 0.0022,0.247976 0.04399,0.404014 0.198375,0.741076 0.07825,0.170789 0.141523,0.314706 0.140637,0.319811 -8.91e-4,0.0051 -0.04025,0.02135 -0.0876,0.03597 -0.0824,0.02559 -0.09365,0.02071 -0.268481,-0.116596 -0.597766,-0.469464 -1.111001,-0.675771 -1.426952,-0.573592 -0.366331,0.118466 -0.430466,0.687635 -0.138503,1.229103 0.247949,0.460078 0.626093,0.722938 1.062666,0.739035 0.161595,0.006 0.227547,-0.0063 0.404935,-0.0753 0.116538,-0.04534 0.208942,-0.07161 0.205323,-0.05841 -0.0037,0.01323 -0.086,0.09046 -0.183079,0.171681 -0.477473,0.399503 -0.730586,0.836886 -0.698181,1.206469 0.02354,0.268431 0.225643,0.511204 0.52949,0.635833 0.510622,0.209505 1.078909,-0.01665 1.286503,-0.511985 0.09966,-0.237813 0.10785,-0.421083 0.03965,-0.887927 -0.03957,-0.270806 -0.05151,-0.426866 -0.03347,-0.43703 0.01549,-0.0086 0.0529,-0.05442 0.08325,-0.101616 l 0.05519,-0.08581 0.2952,0.20622 c 0.300729,0.210079 0.514612,0.335777 0.749267,0.44034 0.324598,0.144645 0.68506,0.163431 0.846883,0.04414 0.354614,-0.261422 0.24443,-1.009174 -0.219425,-1.489112 -0.376318,-0.389363 -0.877845,-0.496186 -1.289536,-0.274665 -0.09239,0.04967 -0.224284,0.112033 -0.293166,0.138449 l -0.125203,0.04809 0.162527,-0.28918 c 0.219195,-0.390005 0.334158,-0.665716 0.398765,-0.956349 0.121931,-0.548501 -0.03899,-0.950436 -0.438618,-1.095564 -0.307697,-0.111738 -0.677215,-0.02647 -0.90556,0.187567 -0.228345,0.214037 -0.353489,0.51887 -0.350887,0.809352 z"
             style="fill:#f9d90f;fill-opacity:1;stroke:#000000;stroke-width:0.25511199;stroke-miterlimit:4;stroke-dasharray:none;stroke-opacity:1"
             sodipodi:nodetypes="ccccsccccccccccccccccccccccccc" />
          <path
             inkscape:connector-curvature="0"
             id="path19569-3-2-6-1-9"
             d="m -28.622497,-82.54533 a 0.63536709,0.73166388 32.565346 0 1 0.899946,-0.407384 0.63536709,0.73166388 32.565346 0 1 0.27157,0.910181 0.63536709,0.73166388 32.565346 0 1 -0.899946,0.407385 0.63536709,0.73166388 32.565346 0 1 -0.271571,-0.910181 z"
             style="fill:#f9d90f;fill-opacity:1;stroke:#000000;stroke-width:0.25524598;stroke-miterlimit:4;stroke-dasharray:none;stroke-opacity:1" />
        </g>
        <g
           transform="matrix(0.51322662,0.1375247,-0.13745075,0.5129957,-123.80405,144.42218)"
           id="g2153"
           style="fill:#f9d90f;fill-opacity:1;stroke:#000000;stroke-width:0.22413377;stroke-miterlimit:4;stroke-dasharray:none;stroke-opacity:1">
          <path
             style="fill:#f9d90f;fill-opacity:1;stroke:#000000;stroke-width:0.22413377;stroke-miterlimit:4;stroke-dasharray:none;stroke-opacity:1"
             d="m -31.602948,-77.281286 c -0.119766,-0.227603 -0.15825,-0.390665 -0.182769,-0.774433 -0.01243,-0.194463 -0.02529,-0.357026 -0.02859,-0.361254 -0.0033,-0.0042 -0.04726,2.65e-4 -0.09769,0.01019 -0.08785,0.01712 -0.09572,0.02711 -0.187989,0.238463 -0.315476,0.722633 -0.682985,1.163339 -1.021789,1.225296 -0.392827,0.07184 -0.730964,-0.416541 -0.730202,-1.054642 5.29e-4,-0.542123 0.216858,-0.968089 0.607758,-1.197372 0.14469,-0.08487 0.210958,-0.106079 0.40689,-0.130244 0.128725,-0.01588 0.226039,-0.03728 0.216252,-0.04756 -0.0098,-0.01029 -0.122992,-0.04036 -0.251564,-0.06684 -0.632388,-0.130244 -1.078428,-0.405363 -1.230349,-0.758883 -0.110342,-0.256765 -0.04491,-0.577863 0.171394,-0.841044 0.363551,-0.442344 0.993757,-0.515075 1.426676,-0.164651 0.207849,0.168244 0.30534,0.331626 0.472334,0.791581 0.09687,0.266814 0.162602,0.415237 0.184073,0.415655 0.01836,2.64e-4 0.07505,0.02371 0.125961,0.0519 l 0.09257,0.05125 0.168378,-0.333462 c 0.171532,-0.339704 0.305175,-0.559647 0.468175,-0.770493 0.225475,-0.291666 0.545528,-0.485995 0.751943,-0.456563 0.452337,0.0645 0.718947,0.801685 0.530942,1.468068 -0.152527,0.540623 -0.558202,0.884703 -1.04308,0.884703 -0.108794,0 -0.259908,0.0079 -0.335807,0.01759 l -0.137993,0.0176 0.290499,0.184267 c 0.391787,0.248512 0.632222,0.443854 0.833985,0.677576 0.380783,0.441095 0.431197,0.887334 0.137414,1.216319 -0.226197,0.253302 -0.605631,0.357032 -0.919359,0.273786 -0.313729,-0.08325 -0.577768,-0.300185 -0.718063,-0.566803 z"
             id="path19551-7-8-5-6"
             inkscape:connector-curvature="0"
             sodipodi:nodetypes="ccccscccccccccccccccccsccccccc" />
          <path
             style="fill:#f9d90f;fill-opacity:1;stroke:#000000;stroke-width:0.22413377;stroke-miterlimit:4;stroke-dasharray:none;stroke-opacity:1"
             d="m -31.25853,-79.217003 a 0.62338221,0.7669912 0 0 1 -0.623382,0.766991 0.62338221,0.7669912 0 0 1 -0.623382,-0.766991 0.62338221,0.7669912 0 0 1 0.623382,-0.766991 0.62338221,0.7669912 0 0 1 0.623382,0.766991 z"
             id="path19569-3-5-3-1"
             inkscape:connector-curvature="0" />
        </g>
        <g
           transform="matrix(0.49776129,-0.1470526,-0.14700283,-0.49760663,-124.7206,56.834033)"
           id="g2157"
           style="fill:#f9d90f;fill-opacity:1;stroke:#000000;stroke-width:0.22943074;stroke-miterlimit:4;stroke-dasharray:none;stroke-opacity:1">
          <path
             style="fill:#f9d90f;fill-opacity:1;stroke:#000000;stroke-width:0.22943074;stroke-miterlimit:4;stroke-dasharray:none;stroke-opacity:1"
             d="m -28.18184,-76.45808 c -0.119767,-0.227602 -0.15825,-0.390665 -0.182769,-0.774433 -0.01244,-0.194463 -0.02529,-0.357026 -0.02859,-0.361254 -0.0033,-0.0042 -0.04726,2.65e-4 -0.09769,0.01019 -0.08786,0.01712 -0.09572,0.02711 -0.187989,0.238463 -0.315476,0.722633 -0.682985,1.163339 -1.021789,1.225296 -0.392827,0.07184 -0.730965,-0.416541 -0.730203,-1.054642 5.29e-4,-0.542123 0.216858,-0.968089 0.607759,-1.197372 0.14469,-0.08487 0.210957,-0.106079 0.406889,-0.130244 0.128725,-0.01588 0.226039,-0.03728 0.216252,-0.04756 -0.0098,-0.01029 -0.122992,-0.04036 -0.251563,-0.06684 -0.632389,-0.130244 -1.078429,-0.405363 -1.23035,-0.758883 -0.110342,-0.256765 -0.04491,-0.577863 0.171395,-0.841044 0.36355,-0.442344 0.993756,-0.515075 1.426675,-0.164651 0.207849,0.168244 0.30534,0.331626 0.472335,0.791581 0.09687,0.266814 0.162602,0.415237 0.184073,0.415655 0.01836,2.64e-4 0.07505,0.02371 0.12596,0.0519 l 0.09257,0.05125 0.168378,-0.333462 c 0.171532,-0.339704 0.305176,-0.559647 0.468175,-0.770493 0.225475,-0.291666 0.545529,-0.485995 0.751943,-0.456562 0.452337,0.0645 0.718947,0.801684 0.530942,1.468067 -0.152527,0.540623 -0.558202,0.884703 -1.04308,0.884703 -0.108794,0 -0.259908,0.0079 -0.335806,0.0176 l -0.137994,0.01759 0.2905,0.184267 c 0.391787,0.248512 0.632222,0.443854 0.833985,0.677576 0.380783,0.441095 0.431197,0.887334 0.137414,1.216319 -0.226198,0.253302 -0.605631,0.357032 -0.91936,0.273786 -0.313729,-0.08325 -0.577767,-0.300185 -0.718062,-0.566803 z"
             id="path19551-7-3-1-0-3"
             inkscape:connector-curvature="0"
             sodipodi:nodetypes="ccccscccccscccccccccscsccccscc" />
          <path
             transform="matrix(0.25875438,0.96594315,-0.96590934,0.25888056,0,0)"
             style="fill:#f9d90f;fill-opacity:1;stroke:#000000;stroke-width:0.22943075;stroke-miterlimit:4;stroke-dasharray:none;stroke-opacity:1"
             d="m -82.332846,7.2067828 a 0.69000399,0.76671183 0 0 1 -0.690004,0.7667118 0.69000399,0.76671183 0 0 1 -0.690004,-0.7667118 0.69000399,0.76671183 0 0 1 0.690004,-0.7667118 0.69000399,0.76671183 0 0 1 0.690004,0.7667118 z"
             id="path19569-3-0-9-0-1"
             inkscape:connector-curvature="0" />
        </g>
      </g>
      <path
         style="fill:#ffffff;fill-opacity:1;stroke:#000000;stroke-width:0.21166667;stroke-miterlimit:4;stroke-dasharray:none"
         d="m -107.37211,102.75788 h -0.75662 v -0.53768 h -0.64454 v -0.61448 h -0.73794 l -5.6e-4,-3.89937 -0.84045,-1.470537 -0.84045,1.470537 v 3.89937 h -0.73794 v 0.61448 h -0.64453 v 0.53768 h -0.75663 v 0.79371 l 5.95966,0.017 z"
         id="path21933-6-9"
         inkscape:connector-curvature="0"
         sodipodi:nodetypes="cccccccccccccccccc" />
    </g>
    <g
       id="g1680">
      <g
         id="g2993"
         transform="translate(-32.21216,165.38638)">
        <path
           inkscape:connector-curvature="0"
           id="path264-3"
           style="fill:#f9d90f;fill-opacity:1;stroke:none;stroke-width:0.2665529"
           d="m -87.081497,-38.151017 c 3.028048,0.0097 6.752257,-0.60842 8.496711,-1.51034 l 3.831309,-0.339256 0.07627,4.674448 c -3.245498,1.789403 -10.739348,2.173924 -12.388058,2.160944 -1.650337,0.01298 -9.236681,-0.377868 -12.496785,-2.173924 l 0.04219,-4.677692 3.839423,0.345581 c 1.744454,0.897381 5.582252,1.520239 8.607055,1.520239 h -0.0081" />
        <path
           d="m -99.56205,-35.339145 3.95105,-0.903705 -3.937817,-0.563487 z"
           style="fill:#f9b60f;fill-opacity:1;stroke:none;stroke-width:0.07230084"
           id="path2878"
           inkscape:connector-curvature="0"
           sodipodi:nodetypes="cc" />
        <path
           inkscape:connector-curvature="0"
           id="path268-7"
           style="fill:#f9d90f;fill-opacity:1;stroke:none;stroke-width:0.2665529"
           d="m -109.42511,-58.089334 3.37531,1.074063 -1.02071,5.464582 -3.19519,0.496309 c 0,0 -0.53875,-2.873363 0.84059,-7.0382" />
        <path
           sodipodi:nodetypes="cccc"
           inkscape:connector-curvature="0"
           id="path274-4"
           style="fill:#f9b60f;fill-opacity:1;stroke:none;stroke-width:0.07230084"
           d="m -110.2657,-51.05438 2.0755,-2.863629 1.11969,2.36732 z" />
        <path
           inkscape:connector-curvature="0"
           id="path270-9"
           style="fill:none;stroke:#000000;stroke-width:0.106;stroke-miterlimit:4;stroke-dasharray:none"
           d="m -109.42511,-58.089334 3.37531,1.074063 -1.02071,5.464582 -3.19519,0.496309 c 0,0 -0.53875,-2.873363 0.84059,-7.0382 v 0.0033 z" />
        <path
           sodipodi:nodetypes="cc"
           inkscape:connector-curvature="0"
           id="path280-3"
           style="fill:none;stroke:#000000;stroke-width:0.106;stroke-miterlimit:4;stroke-dasharray:none"
           d="m -99.56205,-35.339145 3.976197,-0.903705" />
        <path
           sodipodi:nodetypes="cc"
           inkscape:connector-curvature="0"
           id="path2876"
           d="m -108.18705,-53.935318 1.11654,2.38463"
           style="fill:none;stroke:#000000;stroke-width:0.106;stroke-linecap:butt;stroke-linejoin:miter;stroke-miterlimit:4;stroke-dasharray:none;stroke-opacity:1" />
        <path
           sodipodi:nodetypes="cc"
           inkscape:connector-curvature="0"
           id="path2914"
           style="fill:#f9b60f;fill-opacity:1;stroke:none;stroke-width:0.07230084"
           d="m -74.67721,-35.326165 -3.95105,-0.903705 3.937817,-0.563487 z" />
        <path
           d="m -64.81415,-58.076354 -3.37531,1.074063 1.02071,5.464582 3.19519,0.496309 c 0,0 0.53875,-2.873363 -0.84059,-7.0382"
           style="fill:#f9d90f;fill-opacity:1;stroke:none;stroke-width:0.2665529"
           id="path2918"
           inkscape:connector-curvature="0" />
        <path
           d="m -63.97356,-51.0414 -2.0755,-2.863629 -1.11969,2.36732 z"
           style="fill:#f9b60f;fill-opacity:1;stroke:none;stroke-width:0.07230084"
           id="path2920"
           inkscape:connector-curvature="0"
           sodipodi:nodetypes="cccc" />
        <path
           d="m -64.81415,-58.076354 -3.37531,1.074063 1.02071,5.464582 3.19519,0.496309 c 0,0 0.53875,-2.873363 -0.84059,-7.0382 v 0.0033 z"
           style="fill:none;stroke:#000000;stroke-width:0.106;stroke-miterlimit:4;stroke-dasharray:none"
           id="path2922"
           inkscape:connector-curvature="0" />
        <path
           d="m -74.67721,-35.326165 -3.976197,-0.903705"
           style="fill:none;stroke:#000000;stroke-width:0.106;stroke-miterlimit:4;stroke-dasharray:none"
           id="path2928"
           inkscape:connector-curvature="0"
           sodipodi:nodetypes="cc" />
        <path
           style="fill:none;stroke:#000000;stroke-width:0.106;stroke-linecap:butt;stroke-linejoin:miter;stroke-miterlimit:4;stroke-dasharray:none;stroke-opacity:1"
           d="m -66.05221,-53.922338 -1.11654,2.38463"
           id="path2930"
           inkscape:connector-curvature="0"
           sodipodi:nodetypes="cc" />
        <path
           inkscape:connector-curvature="0"
           id="path266-1"
           style="fill:none;stroke:#000000;stroke-width:0.106;stroke-miterlimit:4;stroke-dasharray:none"
           d="m -87.081497,-38.151017 c 3.028048,0.0097 6.752257,-0.60842 8.496711,-1.51034 l 3.831309,-0.339256 0.07627,4.674448 c -3.245498,1.789403 -10.739348,2.173924 -12.388058,2.160944 -1.650337,0.01298 -9.236681,-0.377868 -12.496785,-2.173924 l 0.04219,-4.677692 3.839423,0.345581 c 1.744454,0.897381 5.582252,1.520239 8.607055,1.520239 h -0.0081" />
        <path
           d="m -62.79545,-54.140123 -3.25361,0.235094 c -0.073,2.756708 -0.40731,13.27669 -12.970624,13.847792 l 0.391082,3.827367 c 15.292782,0.158837 16.454672,-12.903364 15.833152,-17.910253"
           style="fill:#f9d90f;fill-opacity:1;stroke:none;stroke-width:0.2665529"
           id="path2924"
           inkscape:connector-curvature="0" />
        <path
           d="m -62.79545,-54.140123 -3.25361,0.235094 c -0.073,2.756708 -0.40731,13.27669 -12.970624,13.847792 l 0.391082,3.827367 c 15.292782,0.158837 16.454672,-12.903364 15.833152,-17.910253 z"
           style="fill:none;stroke:#000000;stroke-width:0.106;stroke-miterlimit:4;stroke-dasharray:none"
           id="path2926"
           inkscape:connector-curvature="0" />
        <path
           inkscape:connector-curvature="0"
           id="path276-9"
           style="fill:#f9d90f;fill-opacity:1;stroke:none;stroke-width:0.2665529"
           d="m -111.44381,-54.153103 3.25361,0.235094 c 0.073,2.756708 0.40731,13.27669 12.970624,13.847792 l -0.391082,3.827367 c -15.292782,0.158837 -16.454672,-12.903364 -15.833152,-17.910253" />
        <path
           inkscape:connector-curvature="0"
           id="path278-2"
           style="fill:none;stroke:#000000;stroke-width:0.106;stroke-miterlimit:4;stroke-dasharray:none"
           d="m -111.44381,-54.153103 3.25361,0.235094 c 0.073,2.756708 0.40731,13.27669 12.970624,13.847792 l -0.391082,3.827367 c -15.292782,0.158837 -16.454672,-12.903364 -15.833152,-17.910253 z" />
      </g>
      <g
         id="g1638">
        <g
           transform="translate(-32.21216,165.38638)"
           id="g2963"
           style="stroke:none;stroke-width:0.02645833;stroke-linejoin:miter;stroke-miterlimit:4;stroke-dasharray:none;stroke-opacity:1">
          <path
             d="m -89.214549,-35.847135 c -0.08601,0.05516 -0.202844,0.06993 -0.337532,0.06328 l -0.606908,-0.03083 0.05193,-0.757522 0.602041,0.03229 c 0.118461,0.0081 0.212579,0.03099 0.270999,0.06652 0.121706,0.06327 0.175256,0.180253 0.163897,0.342337 -0.0081,0.13953 -0.0568,0.23055 -0.146047,0.283928 m -1.019087,1.192664 0.06004,-0.923337 0.707517,0.04884 c 0.228809,0.01786 0.399197,-0.04218 0.514411,-0.159163 0.120083,-0.113571 0.181747,-0.262675 0.189862,-0.431409 0.01461,-0.196479 -0.0357,-0.357103 -0.152538,-0.475543 -0.11197,-0.11357 -0.271,-0.1736 -0.470597,-0.192908 l -1.010972,-0.06328 -0.139556,2.173924 0.300208,0.01964"
             style="fill:#012a87;fill-opacity:1;stroke:none;stroke-width:0.02645833;stroke-linejoin:miter;stroke-miterlimit:4;stroke-dasharray:none;stroke-opacity:1"
             id="path296-2"
             inkscape:connector-curvature="0" />
          <path
             d="m -87.935061,-36.4734 0.739973,0.0081 c 0.1071,0.0097 0.191485,0.02271 0.253147,0.05192 0.113594,0.05354 0.167144,0.160623 0.167144,0.316377 0,0.146183 -0.04219,0.24353 -0.12495,0.30194 -0.07952,0.05338 -0.194732,0.07771 -0.332664,0.07771 l -0.710764,-0.0081 0.0065,-0.747949 m -0.01136,1.925851 0.0065,-0.928045 0.694535,0.0099 c 0.123329,0 0.214203,0.0096 0.277491,0.0404 0.102232,0.04705 0.152538,0.146183 0.157406,0.282307 l 0.01786,0.365051 c 0.0049,0.08761 0.0065,0.141316 0.01136,0.17685 0.0097,0.02596 0.01461,0.05354 0.02759,0.07317 h 0.373232 l -0.0065,-0.04721 c -0.04219,-0.02271 -0.07627,-0.06636 -0.09087,-0.13304 -0.01298,-0.04218 -0.01949,-0.10546 -0.02271,-0.184961 l -0.0065,-0.290417 c -0.0049,-0.13142 -0.02759,-0.222114 -0.07789,-0.272574 -0.04381,-0.05841 -0.103856,-0.108703 -0.196353,-0.13953 0.103859,-0.055 0.18175,-0.118277 0.238544,-0.196317 0.05355,-0.08599 0.08114,-0.194694 0.08114,-0.327572 0,-0.24986 -0.102233,-0.420379 -0.309944,-0.512697 -0.111971,-0.05029 -0.254771,-0.07642 -0.423538,-0.0795 l -1.043426,-0.0099 -0.0081,2.180577 h 0.300209"
             style="fill:#012a87;fill-opacity:1;stroke:none;stroke-width:0.02645833;stroke-linejoin:miter;stroke-miterlimit:4;stroke-dasharray:none;stroke-opacity:1"
             id="path298-1"
             inkscape:connector-curvature="0" />
          <path
             d="m -85.476108,-35.00346 c -0.133065,-0.162082 -0.204465,-0.364889 -0.220691,-0.605012 -0.01461,-0.301937 0.04381,-0.532165 0.181747,-0.688081 0.139556,-0.168737 0.319682,-0.249698 0.554979,-0.262675 0.23692,-0.01298 0.431652,0.06327 0.576076,0.212378 0.14767,0.146183 0.232053,0.34899 0.246658,0.602091 0.0081,0.243207 -0.03408,0.458991 -0.146047,0.648818 -0.110347,0.193236 -0.293717,0.30194 -0.564717,0.308267 -0.282358,0.01477 -0.493317,-0.05176 -0.628005,-0.215786 m -0.357003,-1.372593 c -0.139556,0.215784 -0.196353,0.465644 -0.18175,0.767581 0.02109,0.325951 0.121709,0.59544 0.311571,0.798247 0.210955,0.202805 0.490067,0.304859 0.83409,0.285389 0.368365,-0.01623 0.645855,-0.155754 0.834094,-0.411942 0.152538,-0.23201 0.225561,-0.5015 0.209335,-0.834101 -0.02109,-0.29691 -0.107103,-0.538654 -0.267756,-0.718748 -0.202841,-0.241744 -0.499805,-0.348664 -0.902246,-0.332441 -0.379723,0.02417 -0.658835,0.163707 -0.838961,0.446015"
             style="fill:#012a87;fill-opacity:1;stroke:none;stroke-width:0.02645833;stroke-linejoin:miter;stroke-miterlimit:4;stroke-dasharray:none;stroke-opacity:1"
             id="path300-0"
             inkscape:connector-curvature="0" />
        </g>
        <g
           transform="translate(-32.21216,165.08677)"
           id="g2958"
           style="stroke:none;stroke-width:0.02645833;stroke-linejoin:miter;stroke-miterlimit:4;stroke-dasharray:none;stroke-opacity:1">
          <path
             d="m -109.95413,-49.804929 0.0503,0.272408 c -0.1217,0.02433 -0.21907,0.07317 -0.29047,0.136449 -0.1282,0.119898 -0.17201,0.300154 -0.1282,0.545145 0.0195,0.103674 0.0568,0.205888 0.10386,0.287174 0.0974,0.16549 0.22394,0.231848 0.38459,0.205888 0.11847,-0.02108 0.19636,-0.06636 0.23368,-0.150725 0.0357,-0.08291 0.0617,-0.209459 0.0698,-0.371543 l 0.0146,-0.306804 c 0.01,-0.189827 0.0308,-0.338931 0.073,-0.421838 0.0665,-0.149266 0.19149,-0.241746 0.3781,-0.272411 0.1996,-0.03586 0.37486,0.0096 0.52577,0.123145 0.15254,0.10546 0.25315,0.288797 0.29047,0.532164 0.0471,0.222439 0.026,0.422 -0.0617,0.601931 -0.0844,0.175386 -0.24666,0.282307 -0.49494,0.327734 l -0.0487,-0.275654 c 0.11521,-0.04218 0.20122,-0.08291 0.25802,-0.139531 0.0974,-0.108866 0.12657,-0.266083 0.0892,-0.481868 -0.0292,-0.175389 -0.0892,-0.288959 -0.18013,-0.345583 -0.0892,-0.06668 -0.1785,-0.09264 -0.27586,-0.07625 -0.10873,0.01623 -0.18013,0.07625 -0.21421,0.173601 -0.0211,0.06474 -0.0373,0.1994 -0.0519,0.405614 l -0.0146,0.317838 c -0.008,0.149266 -0.0308,0.272733 -0.0811,0.357103 -0.0795,0.155591 -0.21421,0.251317 -0.41056,0.282144 -0.24828,0.04218 -0.43977,-0.01461 -0.57607,-0.173603 -0.13956,-0.155757 -0.22557,-0.342338 -0.26938,-0.574348 -0.0487,-0.275817 -0.013,-0.489981 0.0974,-0.661799 0.11197,-0.176847 0.28885,-0.27906 0.52902,-0.313133"
             style="fill:#012a87;fill-opacity:1;stroke:none;stroke-width:0.02645833;stroke-linejoin:miter;stroke-miterlimit:4;stroke-dasharray:none;stroke-opacity:1"
             id="path318-3"
             inkscape:connector-curvature="0" />
          <path
             d="m -110.09206,-46.928323 2.14527,-0.645735 0.49981,1.51034 -0.26127,0.08275 -0.40893,-1.241176 -0.65234,0.196477 0.3781,1.146912 -0.24991,0.0795 -0.37485,-1.150157 -0.72699,0.217245 0.41542,1.268759 -0.25639,0.07317 -0.50792,-1.538086"
             style="fill:#012a87;fill-opacity:1;stroke:none;stroke-width:0.02645833;stroke-linejoin:miter;stroke-miterlimit:4;stroke-dasharray:none;stroke-opacity:1"
             id="path320-9"
             inkscape:connector-curvature="0" />
          <path
             d="m -109.14113,-44.309845 1.97326,-1.046322 0.21096,0.368135 -1.35662,1.434249 1.98137,-0.339094 0.20447,0.365216 -1.96839,1.039992 -0.13956,-0.241909 1.16189,-0.611502 c 0.0422,-0.02449 0.1071,-0.06019 0.20122,-0.110327 0.0925,-0.04218 0.19635,-0.09913 0.30021,-0.152673 l -1.97326,0.335847 -0.14443,-0.256347 1.34688,-1.429379 -0.0649,0.03261 c -0.0422,0.02417 -0.11521,0.06003 -0.2142,0.116654 -0.0974,0.06019 -0.17039,0.09735 -0.21745,0.116817 l -1.15864,0.6214 -0.1428,-0.246451"
             style="fill:#012a87;fill-opacity:1;stroke:none;stroke-width:0.02645833;stroke-linejoin:miter;stroke-miterlimit:4;stroke-dasharray:none;stroke-opacity:1"
             id="path322-1"
             inkscape:connector-curvature="0" />
          <path
             d="m -105.46399,-41.404033 c -0.099,-0.02255 -0.19635,-0.0795 -0.29209,-0.17847 l -0.41705,-0.429951 0.56147,-0.514317 0.4203,0.42849 c 0.0811,0.0795 0.13306,0.157214 0.16065,0.223897 0.0389,0.128011 0,0.244991 -0.11846,0.355155 -0.1071,0.09897 -0.21421,0.139533 -0.31482,0.115196 m -1.58542,0.199561 0.68805,-0.631135 0.48844,0.494848 c 0.15741,0.160623 0.31806,0.233634 0.48683,0.23055 0.17201,-0.0099 0.31968,-0.07317 0.4495,-0.196477 0.14605,-0.129797 0.21582,-0.282307 0.21582,-0.446014 -0.002,-0.15916 -0.0746,-0.308265 -0.20933,-0.447795 l -0.70103,-0.715664 -1.63248,1.499146 0.21096,0.212541"
             style="fill:#012a87;fill-opacity:1;stroke:none;stroke-width:0.02645833;stroke-linejoin:miter;stroke-miterlimit:4;stroke-dasharray:none;stroke-opacity:1"
             id="path324-1"
             inkscape:connector-curvature="0" />
          <path
             d="m -105.08102,-39.452223 1.18299,-1.854463 1.3988,0.850165 -0.14604,0.220814 -1.14891,-0.687919 -0.35538,0.561368 1.05641,0.640708 -0.13631,0.212703 -1.05803,-0.637624 -0.40245,0.627726 1.16352,0.69944 -0.13956,0.21903 -1.41504,-0.851948"
             style="fill:#012a87;fill-opacity:1;stroke:none;stroke-width:0.02645833;stroke-linejoin:miter;stroke-miterlimit:4;stroke-dasharray:none;stroke-opacity:1"
             id="path326-8"
             inkscape:connector-curvature="0" />
          <path
             d="m -101.57913,-39.810786 0.71077,0.225683 c 0.10061,0.03066 0.17363,0.0696 0.22231,0.113573 0.0909,0.08599 0.11522,0.209132 0.0617,0.358398 -0.0438,0.129797 -0.11035,0.214164 -0.21421,0.25002 -0.0925,0.01607 -0.20933,0.01607 -0.34564,-0.02612 l -0.6702,-0.214001 0.2353,-0.707551 m -0.6134,1.822014 0.29534,-0.884235 0.66209,0.215787 c 0.11846,0.03099 0.20446,0.07317 0.24665,0.116814 0.0811,0.07301 0.10548,0.181716 0.0649,0.316542 l -0.099,0.351909 c -0.0227,0.08599 -0.0341,0.142776 -0.0438,0.168736 0,0.02774 0,0.05695 0.005,0.07625 l 0.34889,0.113573 0.0211,-0.0503 c -0.0373,-0.0292 -0.0584,-0.08258 -0.0568,-0.149104 0.008,-0.04072 0.0195,-0.10546 0.0422,-0.180254 l 0.0844,-0.282307 c 0.0341,-0.123307 0.0471,-0.215787 0.0162,-0.282144 -0.026,-0.06993 -0.0698,-0.133203 -0.1428,-0.193074 0.11034,-0.01964 0.20609,-0.0537 0.28722,-0.113733 0.0763,-0.06652 0.14118,-0.159 0.18013,-0.288634 0.0795,-0.235417 0.0357,-0.431734 -0.13956,-0.581 -0.0876,-0.07772 -0.21258,-0.144398 -0.37647,-0.206051 l -0.99313,-0.306481 -0.69453,2.068464 0.29047,0.08923"
             style="fill:#012a87;fill-opacity:1;stroke:none;stroke-width:0.02645833;stroke-linejoin:miter;stroke-miterlimit:4;stroke-dasharray:none;stroke-opacity:1"
             id="path328-8"
             inkscape:connector-curvature="0" />
        </g>
        <g
           transform="rotate(1.0462547,-9140.2016,-1720.1809)"
           id="g2973"
           style="stroke:none;stroke-width:0.02645833;stroke-linejoin:miter;stroke-miterlimit:4;stroke-dasharray:none;stroke-opacity:1">
          <path
             d="m -75.741732,-39.512256 c 0.209335,-0.03569 0.391082,-0.0258 0.556602,0.03083 0.243412,0.07626 0.407312,0.25651 0.509544,0.532165 l -0.300209,0.04218 c -0.06491,-0.149101 -0.157405,-0.251318 -0.282358,-0.308264 -0.121706,-0.05338 -0.274244,-0.06652 -0.449503,-0.0404 -0.204464,0.03083 -0.368361,0.132881 -0.483576,0.29691 -0.113594,0.175062 -0.14767,0.408858 -0.09737,0.707226 0.04219,0.246776 0.133067,0.455911 0.282358,0.595441 0.137935,0.142777 0.340779,0.193071 0.605285,0.155754 0.197976,-0.03245 0.357006,-0.111785 0.468976,-0.248234 0.116838,-0.129634 0.150915,-0.326114 0.111968,-0.579215 l -0.699403,0.107243 -0.0357,-0.240123 0.973647,-0.149427 0.189861,1.153563 -0.193106,0.02921 -0.120082,-0.266084 c -0.08114,0.120223 -0.162276,0.212703 -0.233676,0.266084 -0.120085,0.09426 -0.282359,0.154293 -0.485203,0.183497 -0.262885,0.0404 -0.503052,-0.0067 -0.720499,-0.146183 -0.238544,-0.176847 -0.392706,-0.439684 -0.451123,-0.804573 -0.06329,-0.358563 -0.0065,-0.665367 0.159029,-0.907114 0.157406,-0.233471 0.386212,-0.369755 0.694535,-0.413724"
             style="fill:#012a87;fill-opacity:1;stroke:none;stroke-width:0.02645833;stroke-linejoin:miter;stroke-miterlimit:4;stroke-dasharray:none;stroke-opacity:1"
             id="path302-2"
             inkscape:connector-curvature="0" />
          <path
             d="m -73.539663,-39.680989 0.697782,-0.253104 c 0.09574,-0.03553 0.178502,-0.04705 0.249902,-0.03878 0.128197,0.0096 0.222318,0.08583 0.275868,0.238338 0.05031,0.129794 0.05031,0.243368 -0.0065,0.32303 -0.06004,0.08258 -0.154162,0.142774 -0.290471,0.192908 l -0.65559,0.235257 -0.271,-0.697654 m 0.697782,1.802706 -0.340776,-0.874502 0.649099,-0.233796 c 0.121706,-0.03894 0.206088,-0.06003 0.269376,-0.05338 0.115215,0.01445 0.202844,0.08437 0.261262,0.217248 l 0.14767,0.332763 c 0.03246,0.08258 0.05842,0.132878 0.07952,0.155757 0.0097,0.0292 0.03083,0.04705 0.04706,0.06636 l 0.352138,-0.129635 -0.01949,-0.04705 c -0.05193,0 -0.102232,-0.02921 -0.139556,-0.08615 -0.02759,-0.0404 -0.05355,-0.09881 -0.09087,-0.166951 l -0.115218,-0.272733 c -0.05193,-0.11844 -0.105476,-0.191287 -0.167141,-0.235257 -0.06167,-0.03407 -0.139559,-0.05679 -0.232053,-0.06311 0.0714,-0.08291 0.123327,-0.16565 0.1428,-0.262999 0.02109,-0.0988 0.01136,-0.209132 -0.0357,-0.332439 -0.08925,-0.23201 -0.253149,-0.358563 -0.483579,-0.374787 -0.121706,-0.0097 -0.261261,0.01623 -0.421914,0.07285 l -0.98014,0.348989 0.791902,2.050618 0.287226,-0.10546"
             style="fill:#012a87;fill-opacity:1;stroke:none;stroke-width:0.02645833;stroke-linejoin:miter;stroke-miterlimit:4;stroke-dasharray:none;stroke-opacity:1"
             id="path304-9"
             inkscape:connector-curvature="0" />
          <path
             d="m -70.289298,-38.958836 -1.244649,-1.815686 1.366355,-0.871258 0.150914,0.219193 -1.119696,0.715339 0.38297,0.554881 1.033691,-0.665208 0.141179,0.212544 -1.033691,0.665367 0.421915,0.611664 1.139169,-0.728643 0.150915,0.214326 -1.390696,0.887481"
             style="fill:#012a87;fill-opacity:1;stroke:none;stroke-width:0.02645833;stroke-linejoin:miter;stroke-miterlimit:4;stroke-dasharray:none;stroke-opacity:1"
             id="path306-4"
             inkscape:connector-curvature="0" />
          <path
             d="m -69.200434,-42.16821 0.357005,-0.392632 c 0.165521,-0.175226 0.340776,-0.254726 0.532261,-0.23201 0.191483,0.01623 0.386215,0.116814 0.593926,0.298531 0.05679,0.04381 0.1071,0.10059 0.15903,0.163867 0.09087,0.11844 0.144423,0.222439 0.1785,0.326113 0.02921,0.129957 0.02271,0.248397 -0.02271,0.361968 -0.02759,0.05662 -0.07627,0.123144 -0.149291,0.202807 l -0.358629,0.38939 -1.290084,-1.121115 m 1.885634,0.854869 c 0.253149,-0.278898 0.30832,-0.579052 0.160652,-0.918146 -0.08601,-0.1835 -0.217449,-0.36197 -0.399196,-0.517724 -0.228809,-0.202807 -0.467353,-0.306644 -0.718879,-0.325951 -0.279112,-0.02124 -0.516032,0.0795 -0.722123,0.304858 l -0.608529,0.652228 1.677922,1.463612 0.608529,-0.655468"
             style="fill:#012a87;fill-opacity:1;stroke:none;stroke-width:0.02645833;stroke-linejoin:miter;stroke-miterlimit:4;stroke-dasharray:none;stroke-opacity:1"
             id="path308-6"
             inkscape:connector-curvature="0" />
          <path
             d="m -66.014981,-43.008639 -1.931069,-1.134095 0.157406,-0.249695 1.934316,1.127605 -0.159029,0.259429"
             style="fill:#012a87;fill-opacity:1;stroke:none;stroke-width:0.02645833;stroke-linejoin:miter;stroke-miterlimit:4;stroke-dasharray:none;stroke-opacity:1"
             id="path310-9"
             inkscape:connector-curvature="0" />
          <path
             d="m -65.257155,-44.325909 -2.085234,-0.834104 0.615023,-1.466696 0.253147,0.09735 -0.501429,1.208729 0.628005,0.246773 0.468974,-1.113165 0.240167,0.09913 -0.464106,1.111379 0.70265,0.285391 0.514411,-1.223166 0.253147,0.09556 -0.626379,1.492818"
             style="fill:#012a87;fill-opacity:1;stroke:none;stroke-width:0.02645833;stroke-linejoin:miter;stroke-miterlimit:4;stroke-dasharray:none;stroke-opacity:1"
             id="path312-5"
             inkscape:connector-curvature="0" />
          <path
             d="m -64.299735,-46.886137 -2.193955,-0.485114 0.07302,-0.339094 2.026813,-0.684674 -1.780157,-0.392634 0.06491,-0.266081 2.193955,0.471971 -0.06978,0.329358 -2.03006,0.69944 1.780157,0.384521 -0.06329,0.282307"
             style="fill:#012a87;fill-opacity:1;stroke:none;stroke-width:0.02645833;stroke-linejoin:miter;stroke-miterlimit:4;stroke-dasharray:none;stroke-opacity:1"
             id="path314-5"
             inkscape:connector-curvature="0" />
          <path
             d="m -64.473368,-49.672051 0.02759,-0.275817 c 0.126573,0.0034 0.233676,-0.01623 0.314814,-0.05987 0.159029,-0.08615 0.251524,-0.249857 0.275865,-0.491767 0.0097,-0.113407 0.0049,-0.21254 -0.02109,-0.306643 -0.04706,-0.181552 -0.149294,-0.282305 -0.313191,-0.298531 -0.121706,-0.01298 -0.209335,0.01623 -0.272621,0.08291 -0.0568,0.07625 -0.116838,0.186418 -0.162276,0.342337 l -0.100609,0.287174 c -0.06491,0.188041 -0.124953,0.317838 -0.189862,0.390848 -0.103855,0.136447 -0.249905,0.1835 -0.43652,0.17052 -0.199597,-0.02108 -0.361873,-0.100593 -0.477088,-0.253103 -0.118461,-0.139531 -0.167143,-0.339091 -0.137935,-0.585868 0.01946,-0.225358 0.09412,-0.415185 0.227185,-0.567695 0.12333,-0.13953 0.314815,-0.206213 0.55985,-0.180256 l -0.02271,0.275817 c -0.120086,0 -0.215827,0.02108 -0.285606,0.06977 -0.126573,0.06976 -0.196353,0.217407 -0.217447,0.433194 -0.01786,0.178633 0.0065,0.298531 0.07465,0.38955 0.06815,0.07626 0.154159,0.124768 0.25477,0.132881 0.107101,0.0097 0.191486,-0.02433 0.249903,-0.106921 0.04219,-0.05695 0.0925,-0.180253 0.160653,-0.379816 l 0.09899,-0.301775 c 0.04868,-0.139533 0.1071,-0.246613 0.175256,-0.32287 0.121706,-0.12655 0.280735,-0.180091 0.480335,-0.165328 0.243411,0.0258 0.417044,0.126554 0.506296,0.311511 0.08763,0.186583 0.121706,0.392634 0.100609,0.626268 -0.02759,0.264297 -0.113591,0.472134 -0.27262,0.611664 -0.159029,0.142614 -0.357006,0.191288 -0.59717,0.171818"
             style="fill:#012a87;fill-opacity:1;stroke:none;stroke-width:0.02645833;stroke-linejoin:miter;stroke-miterlimit:4;stroke-dasharray:none;stroke-opacity:1"
             id="path316-9"
             inkscape:connector-curvature="0" />
        </g>
      </g>
    </g>
  </g>
</svg>
